<?xml version="1.0" encoding="utf-8"?>
<!-- Generator: Adobe Illustrator 24.1.2, SVG Export Plug-In . SVG Version: 6.00 Build 0)  -->
<svg version="1.1" id="Layer_1" xmlns="http://www.w3.org/2000/svg" xmlns:xlink="http://www.w3.org/1999/xlink" x="0px" y="0px"
	 viewBox="0 0 3078 1732" style="enable-background:new 0 0 3078 1732;" xml:space="preserve">
<style type="text/css">
	.st0{fill:#E6EBF7;}
	.st1{fill:#3C8F7C;}
	.st2{fill:#96D9C9;}
	.st3{fill:#50BFA5;}
	.st4{fill:#FFFFFF;}
	.st5{fill:#F48C7F;}
	.st6{fill:#F7CC7F;}
	.st7{fill:#07345A;}
	.st8{fill:#E25A44;}
	.st9{fill:#EAFCFC;}
	.st10{fill:#C0DDE3;}
	.st11{fill:#183658;}
	.st12{fill:#184655;}
	.st13{opacity:0.3;fill:#DAEEF7;}
	.st14{opacity:0.2;fill:#3CB4C5;}
	.st15{fill:#1A1A1A;}
	.st16{fill:#9E9DA2;}
	.st17{fill:#D8D9DD;}
	.st18{fill:#CF283C;}
	.st19{fill:#F3FCFF;}
	.st20{fill:#EAB054;}
	.st21{opacity:0.5;fill:#FEB546;}
	.st22{fill:#F7A491;}
	.st23{fill:#355389;}
	.st24{fill:#466EB6;}
	.st25{fill:#F8A492;}
	.st26{fill:#F47458;}
</style>
<polygon class="st0" points="3015.45,1659.79 3015.45,1261.26 2879.37,1261.26 2879.37,967.28 2748.46,967.28 2748.46,1098.18 
	2640.13,1098.18 2640.13,1056.03 2640.13,796.55 2462.76,796.55 2462.76,1072.35 2409.7,1074.12 2409.7,796.04 2347.79,796.04 
	2347.79,677.54 2310.65,677.54 2310.65,597.95 2165.62,597.95 2165.62,677.54 2128.48,677.54 2128.48,796.04 2066.58,796.04 
	2066.58,946.68 2038.01,948.45 2029.43,502.16 1838.42,502.16 1838.42,739.58 1771.21,741.35 1771.21,370.27 1748.21,370.27 
	1748.21,291.97 1546.59,291.97 1546.59,370.27 1523.59,370.27 1523.59,870.33 1481.15,870.33 1481.15,714.41 1445.77,714.41 
	1445.77,638.17 1394.48,638.17 1394.48,415.61 1320.2,415.61 1320.2,638.17 1268.91,638.17 1268.91,714.41 1233.53,714.41 
	1233.53,978.21 1208.77,978.21 1189.32,977.95 1189.32,672.32 665.79,677.32 665.79,1365.55 621.57,1365.55 621.57,1275.34 
	462.39,1275.34 462.39,1448.67 416.41,1448.67 416.41,1385 315.59,1385 315.59,1494.66 315.59,1514.12 214.78,1514.12 
	214.78,1659.79 "/>
<g>
	<path class="st1" d="M705.41,1651.04c0,0-66.32-382.68-93.14-422.2c-37.06-54.62-83.14,112.98-85.39,98.25
		c-21.23-139.11-16.78-314.56-116.05-341.14c-56.43-15.11,3.73,131.03-3.28,168.69s-100.88-96.78-158.7-167.91
		c-57.82-71.13-93.22-31.88-59.7,54.4c32.41,83.44,149.81,181.21,123.53,189.58s-173.64-107.87-195.85-65.03
		c-27.23,52.52,199.77,145.23,177,155.69c-22.78,10.46-130.91-38.71-130.91,3.13s149.43,52.29,145.54,70.38
		c-6.29,29.29-100.16-45.7-107.49-5.06c-7.5,41.57,127.42,44.72,122.71,77.24c-2.71,18.69-36.69-0.87-42.84,24.82
		c-14.02,58.57,198.59,140.65,198.59,140.65L705.41,1651.04z"/>
	<path class="st2" d="M811.21,1660.94c-26.98-35.1-186.36-231.44-282.84-262.78c-106.49-34.59-6.12,102.8-6.12,102.8
		s-188.91-207.28-258.24-188.59c-63.55,17.13,0,145.61,0,145.61s-71.57-71.14-158.37-71.14c-84.47,0,61.34,260.6,69.09,274.1H811.21
		z"/>
	<g>
		<path class="st3" d="M150.88,1521.49c-0.51,3.24-3.88,12.66-1.8,21.97c1.23,9.18,7.91,18.24,7.96,17.79
			c0.57-0.03-10.41-2.98-17.84-12.42c-7.95-8.67-12.34-23.82-10.58-30.36c1.87-13.79,13.3-20.49,18.01-16.46
			C151.48,1505.93,151.61,1514.32,150.88,1521.49z"/>
		<path class="st3" d="M220.32,1546.44c-0.51,3.24-3.88,12.67-1.8,21.97c1.23,9.18,7.91,18.24,7.96,17.79
			c0.57-0.03-10.41-2.98-17.84-12.42c-7.95-8.67-12.34-23.82-10.58-30.36c1.87-13.79,13.3-20.49,18.02-16.46
			C220.91,1530.87,221.04,1539.27,220.32,1546.44z"/>
		<path class="st3" d="M290.87,1577.99c-0.51,3.24-3.88,12.66-1.8,21.97c1.23,9.18,7.91,18.24,7.96,17.79
			c0.57-0.03-10.41-2.98-17.84-12.42c-7.95-8.67-12.34-23.82-10.58-30.36c1.87-13.79,13.3-20.49,18.02-16.46
			C291.46,1562.42,291.59,1570.82,290.87,1577.99z"/>
		<path class="st3" d="M130.15,1586.59c1.43-2.68,4.18-11.51,10.89-17.2c6.01-6.07,15.97-9.01,15.76-8.65
			c0.41,0.34-9.33-3.63-20.06-0.83c-10.68,1.94-22.34,10.64-24.68,16.45c-6.29,11.21-1.6,22.55,4.12,22.22
			C121.94,1598.39,126.7,1592.28,130.15,1586.59z"/>
		<path class="st3" d="M202.38,1612.24c1.43-2.68,4.18-11.51,10.89-17.2c6.01-6.07,15.97-9.01,15.76-8.65
			c0.41,0.34-9.33-3.63-20.06-0.83c-10.68,1.94-22.34,10.65-24.68,16.45c-6.29,11.21-1.6,22.55,4.12,22.22
			C194.16,1624.04,198.92,1617.93,202.38,1612.24z"/>
		<path class="st3" d="M83.49,1526.11c0.29,1.93,0.05,7.86,2.88,12.75c2.33,4.97,7.71,8.91,7.66,8.64c0.32-0.12-6.42,0.17-12.3-3.84
			c-6.04-3.48-11.21-11.27-11.38-15.29c-1.39-8.14,3.89-13.97,7.27-12.53C81.06,1517.2,82.63,1521.92,83.49,1526.11z"/>
		<path class="st3" d="M72.18,1558.68c1.25-1.49,4.14-6.67,9.1-9.36c4.58-3.02,11.22-3.54,11.03-3.34
			c0.21,0.27-5.38-3.52-12.48-3.18c-6.96-0.2-15.43,3.72-17.67,7.06c-5.43,6.2-3.97,13.95-0.34,14.5
			C65.46,1565.01,69.26,1561.8,72.18,1558.68z"/>
		<g>
			<g>
				<path class="st3" d="M232.59,1252.07c77.19,120.96,134.37,266.09,166.58,408.84h8.33c-32.07-139.76-91.92-286.08-168.98-406.9
					c-17.91-28.08-37.25-61.39-70.78-72.35c-0.65-0.21-0.89,0.78-0.27,1.01C198.1,1194.24,215.84,1225.81,232.59,1252.07z"/>
			</g>
			<g>
				<path class="st3" d="M383.53,1660.9c-86.25-117.69-194.93-232.22-319.61-326.82c-1.24-0.94-2.92,1.23-1.67,2.2
					c118.25,91.21,224.93,202.91,312.96,324.62H383.53z"/>
			</g>
			<path class="st3" d="M225.54,1177.05c-1.99,2.93-9.59,10.58-11.83,20.63c-3,9.53-0.63,21.46-0.38,21.04
				c0.57,0.24-8.8-7.71-11.73-20.36c-3.79-12.13-1.14-28.96,3.58-34.54c8.14-12.6,22.37-13.88,25.14-7.77
				C233.25,1162.12,229.53,1170.38,225.54,1177.05z"/>
			<path class="st3" d="M207.07,1285.02c2.88-2.05,10.35-9.83,20.32-12.27c9.44-3.2,21.37-1.06,20.96-0.79
				c0.25,0.57-7.86-8.68-20.52-11.37c-12.16-3.56-28.88-0.57-34.34,4.27c-12.4,8.42-13.39,22.72-7.25,25.37
				C192.35,1293.05,200.51,1289.16,207.07,1285.02z"/>
			<path class="st3" d="M234.94,1332.34c2.88-2.05,10.35-9.83,20.32-12.27c9.44-3.2,21.37-1.06,20.96-0.79
				c0.25,0.57-7.86-8.68-20.52-11.37c-12.16-3.56-28.88-0.57-34.34,4.27c-12.4,8.42-13.39,22.72-7.25,25.37
				C220.21,1340.38,228.37,1336.48,234.94,1332.34z"/>
			<path class="st3" d="M135.54,1442.1c2.88-2.05,10.35-9.83,20.32-12.27c9.44-3.2,21.37-1.06,20.96-0.79
				c0.25,0.57-7.86-8.68-20.52-11.37c-12.16-3.56-28.88-0.57-34.34,4.27c-12.4,8.42-13.39,22.72-7.25,25.37
				C120.82,1450.13,128.97,1446.24,135.54,1442.1z"/>
			<path class="st3" d="M84.76,1397.21c2.88-2.05,10.35-9.83,20.32-12.27c9.44-3.2,21.37-1.06,20.96-0.79
				c0.25,0.57-7.86-8.68-20.52-11.37c-12.16-3.56-28.88-0.57-34.34,4.27c-12.4,8.42-13.39,22.72-7.25,25.37
				C70.04,1405.25,78.19,1401.35,84.76,1397.21z"/>
			<path class="st3" d="M264.53,1230.6c-2.42,2.58-11.14,8.93-14.92,18.5c-4.46,8.94-4,21.09-3.68,20.72
				c0.53,0.32-7.48-9.01-8.38-21.97c-1.84-12.58,3.43-28.78,8.96-33.54c10.02-11.16,24.28-10.17,26.04-3.7
				C274.49,1217.08,269.52,1224.64,264.53,1230.6z"/>
			<path class="st3" d="M305.51,1284.26c-3.45,1.84-15.5,5.16-21.56,14.21c-6.86,8.05-7.73,21.82-7.27,21.54
				c0.65,0.59-8.59-13.28-8.19-28.13c-0.85-14.83,7.92-30.64,15.66-33.57c14.33-8.13,32.66-0.88,34.16,7.11
				C320.04,1273.47,312.69,1279.77,305.51,1284.26z"/>
			<path class="st3" d="M348.63,1365.54c-3.71,1.23-16.14,2.48-23.63,10.37c-8.11,6.78-11.28,20.2-10.78,20.01
				c0.54,0.69-6.24-14.54-3.36-29.11c1.64-14.77,12.95-28.87,21.07-30.45c15.49-5.6,32.34,4.64,32.48,12.77
				C364.77,1357.36,356.47,1362.33,348.63,1365.54z"/>
			<path class="st3" d="M221.01,1422.16c-2.7,1.69-12.31,5.08-16.73,12.79c-5.12,6.94-5.05,18.19-4.69,17.94
				c0.56,0.44-7.74-10.31-8.26-22.41c-1.54-12.02,4.71-25.38,10.84-28.2c11.19-7.43,26.51-2.58,28.19,3.83
				C232.23,1412.55,226.6,1418.1,221.01,1422.16z"/>
			<path class="st3" d="M154.57,1196.08c1.62-1.34,5.69-6.27,11.48-8.15c5.44-2.31,12.6-1.56,12.37-1.39
				c0.17,0.33-5.03-4.79-12.64-5.82c-7.35-1.57-17.11,0.93-20.13,4.03c-6.97,5.52-6.93,14.03-3.18,15.33
				C146.21,1201.48,150.87,1198.82,154.57,1196.08z"/>
			<path class="st3" d="M170.05,1161.54c-0.07,2.1-1.47,8.35,0.58,14.1c1.5,5.73,6.46,10.97,6.45,10.67
				c0.36-0.06-6.85-1.07-12.31-6.49c-5.73-4.88-9.71-14.16-9.1-18.46c0.11-8.91,6.84-14.07,10.16-11.88
				C169.2,1151.6,169.95,1156.93,170.05,1161.54z"/>
			<path class="st3" d="M48.19,1351.48c1.62-1.34,5.69-6.27,11.48-8.15c5.44-2.31,12.6-1.56,12.37-1.39
				c0.17,0.33-5.03-4.79-12.64-5.82c-7.35-1.57-17.11,0.93-20.13,4.03c-6.97,5.52-6.93,14.03-3.18,15.33
				C39.83,1356.88,44.48,1354.22,48.19,1351.48z"/>
			<path class="st3" d="M66.86,1316.65c-0.24,2.09-2.15,8.21-0.58,14.1c1.03,5.84,5.54,11.46,5.56,11.17
				c0.37-0.03-6.74-1.63-11.74-7.48c-5.31-5.33-8.52-14.91-7.57-19.15c0.83-8.87,7.97-13.46,11.09-11.01
				C66.83,1306.67,67.13,1312.04,66.86,1316.65z"/>
		</g>
		<path class="st3" d="M79.9,1545.37c22.25,2.01,44.23,6.11,65.83,11.78c39.4,10.35,77.31,25.65,114.6,41.91
			c18.33,7.99,36.79,15.88,54.78,24.64c8.41,4.1,16.87,8.21,24.62,13.46c10.44,7.08,26.74,21.26,28.72,23.49l-8.56,0.25
			c-5.85-4.77-27.33-22.91-57.15-37.27c-70.66-34.04-144.07-68.95-222.88-77.62C79.44,1545.97,79.49,1545.33,79.9,1545.37z"/>
	</g>
</g>
<path class="st2" d="M938.25,1653.18c20.92-17.93,33.57-36.94,30.33-55.85c-5.78-33.73-53.67-12.05-55.49-36.41
	c-3.17-42.38,179.64-32.47,173.6-86.81c-5.91-53.13-140.27,33.78-145.89-4.62c-3.47-23.71,199.68-21.7,203.81-75.61
	c4.13-53.91-146.99-1.75-176.77-17.59s286.42-111.78,254.77-182.27c-25.81-57.5-236.6,77-271.32,63.5
	c-34.72-13.5,133.72-127.32,185.79-231.47c53.85-107.71,9.83-161.94-75.39-76.28s-225.46,249.15-231.22,199.91
	c-5.76-49.24,90.03-231.32,12.21-217.69c-136.9,23.97-148.2,250.5-190.64,427.53c-4.49,18.75-50.29-201.96-105.81-135.43
	c-28.56,34.22,24.4,286.23,57.42,429.09H938.25z"/>
<ellipse transform="matrix(0.086 -0.9963 0.9963 0.086 887.7775 2111.8704)" class="st4" cx="1594.89" cy="572.09" rx="72.54" ry="72.54"/>
<path class="st5" d="M2226.5,483.84c-2.29,18.07,16.52,32.4,33.25,31.27c18.5-1.25,34.19-16.42,36.89-34.6
	c2.93-19.67-8.89-35.41-27.18-36.85c-17.8-1.4-29.19,14.44-24.05,30.43c3.69,11.46,14.15,15.74,19.42,12.58
	c4.11-2.47,3.86-8.68-1.11-9.78c-1.99-0.44-4.05,0.67-5.11,2.2c-4.35-1.73-8.5-9.66-5.69-18.22c3.59-10.93,17.42-11.56,26-6.46
	c10.93,6.49,12.65,20.47,8.64,31.61c-4.21,11.69-15.69,20.91-28.2,21.79c-14.16,1.01-26.63-9.85-27.76-23.96
	C2231.35,480.52,2226.91,480.6,2226.5,483.84z"/>
<path class="st5" d="M2543.65,423.39l11.88-26.81l-15.35-24.98c-1.75-2.85,0.53-6.46,3.85-6.12l29.17,3.01l19.02-22.32
	c2.17-2.54,6.31-1.5,7.01,1.77l6.15,28.67l27.11,11.19c3.09,1.27,3.37,5.54,0.48,7.21l-25.37,14.71l-2.26,29.24
	c-0.26,3.33-4.22,4.92-6.71,2.69l-21.83-19.58l-28.5,6.88C2545.04,429.73,2542.3,426.45,2543.65,423.39z"/>
<path class="st6" d="M1431.32,233.52l8.91-20.11l-11.52-18.74c-1.31-2.13,0.39-4.85,2.89-4.59l21.88,2.26l14.26-16.74
	c1.62-1.91,4.73-1.12,5.26,1.33l4.61,21.51l20.33,8.39c2.32,0.96,2.53,4.15,0.36,5.41l-19.03,11.03l-1.7,21.93
	c-0.19,2.5-3.17,3.69-5.03,2.02l-16.37-14.69l-21.38,5.16C1432.36,238.27,1430.3,235.81,1431.32,233.52z"/>
<polygon class="st3" points="2743.15,655.46 2755.76,632.54 2794.88,648.76 2817.46,617.53 2848.73,624.88 2852.45,609.06 
	2810.64,599.22 2789.24,628.82 2748.54,611.94 2729.56,646.43 "/>
<polygon class="st7" points="1716.96,160.93 1694.74,147.11 1713.04,108.91 1683.05,84.7 1692.06,53.87 1676.46,49.31 1664.4,90.53 
	1692.82,113.48 1673.79,153.22 1707.22,174.02 "/>
<path class="st3" d="M2009.08,317.52l16.44-26.71l-13.2-5.35c-2.89-1.17-4.28-4.46-3.11-7.35l0,0c1.17-2.89,4.46-4.28,7.35-3.11
	l15.23,6.17l14.7-23.98l-14.1-5.72c-2.89-1.17-4.28-4.46-3.11-7.35l0,0c1.17-2.89,4.46-4.28,7.35-3.11l16.13,6.54l17.07-27.46
	c1.45-2.33,4.37-3.28,6.92-2.25l2.46,1c3.23,1.31,4.51,5.21,2.69,8.18l-15.88,25.92l23.38,9.48l17.07-27.46
	c1.45-2.33,4.37-3.28,6.92-2.25l2.69,1.09c3.23,1.31,4.51,5.21,2.69,8.18l-15.88,25.92l13.2,5.35c2.89,1.17,4.28,4.46,3.11,7.35l0,0
	c-1.17,2.89-4.46,4.28-7.35,3.11l-15.23-6.17l-14.48,24.07l14.1,5.72c2.89,1.17,4.28,4.46,3.11,7.35l0,0
	c-1.17,2.89-4.46,4.28-7.35,3.11l-16.13-6.54l-17.44,28.32c-1.45,2.35-4.38,3.31-6.93,2.27l-2.88-1.17
	c-3.24-1.31-4.52-5.22-2.69-8.19l16.44-26.71l-23.38-9.48l-17.44,28.32c-1.44,2.35-4.37,3.31-6.93,2.27l-2.88-1.17
	C2008.53,324.4,2007.25,320.49,2009.08,317.52z M2068.66,296.12l14.7-23.98l-23.38-9.48l-14.7,23.98L2068.66,296.12z"/>
<g>
	<path class="st8" d="M1293.72,38.65L1293.72,38.65c-0.07-0.02-0.14-0.04-0.2-0.07c-1.9-0.68-3.83-1.29-5.78-1.86
		c-0.67-0.19-1.33-0.39-2-0.57c-0.71-0.19-1.42-0.35-2.13-0.52c-0.72-0.17-1.45-0.35-2.18-0.5c-0.69-0.15-1.38-0.28-2.08-0.42
		c-0.78-0.15-1.56-0.29-2.34-0.42c-0.67-0.11-1.33-0.21-2-0.31c-0.85-0.12-1.7-0.23-2.55-0.33c-0.62-0.07-1.24-0.15-1.86-0.21
		c-0.98-0.09-1.96-0.16-2.94-0.22c-0.52-0.03-1.03-0.08-1.55-0.1c-1.51-0.07-3.03-0.12-4.56-0.12H560.22
		c-1.63,0-3.25,0.04-4.87,0.12c-3.22,0.16-6.4,0.49-9.54,0.97c-1.57,0.24-3.12,0.52-4.66,0.83c-40.01,8.22-70.82,41.79-75.02,83.26
		c-0.32,3.19-0.49,6.43-0.49,9.7v1171v267.16c0,41.07,26,76.03,62.39,89.24l0,0c0.16,0.06,0.33,0.11,0.49,0.17
		c1.8,0.64,3.64,1.22,5.49,1.76c0.67,0.19,1.33,0.39,2.01,0.57c0.71,0.19,1.42,0.35,2.13,0.52c0.72,0.17,1.45,0.35,2.18,0.5
		c0.69,0.15,1.38,0.28,2.07,0.42c0.78,0.15,1.56,0.29,2.34,0.42c0.67,0.11,1.33,0.21,2,0.31c0.85,0.12,1.7,0.23,2.55,0.33
		c0.62,0.07,1.24,0.15,1.87,0.21c0.97,0.09,1.96,0.16,2.94,0.22c0.52,0.03,1.03,0.08,1.55,0.1c1.51,0.07,3.03,0.12,4.56,0.12h701.31
		c3.26,0,6.49-0.17,9.67-0.49c44.51-4.54,79.89-40.04,84.41-84.7c0.32-3.19,0.49-6.43,0.49-9.7v-1171V127.89
		C1356.1,86.82,1330.1,51.86,1293.72,38.65z"/>
	<g>
		<rect x="511.5" y="162.33" class="st9" width="801.48" height="1369.29"/>
		<path class="st4" d="M1312.98,739.13l-231.32-18.98l-6.59-135.58l-56.84-2.36v-92.39l294.76,126.43v-25.94l-97.78-41.94
			l-18.51-386.05h-23.87l18.01,375.59l-172.61-74.04v-2.64h-6.15L972.8,444.4l-0.18-282.08h-23.84l0.18,271.85L709.81,331.6V162.33
			h-47.68v148.82L511.5,246.54v25.94l150.63,64.61v150.83L511.5,417.61v26.31l150.63,70.31v89.06L526.14,775.92l-14.64,0.29v23.85
			l119.72-2.37v162.35l125.01,69.44l-131.15,57.65l-113.58-81.05v29.29l107.26,76.54l0.09-0.13l-25.84,419.82h47.77l16.05-260.85
			l201.51,73.66l-23.07,187.2h24.02l22.03-178.79l196.67,71.89l-34.43,106.9h25.05l31.79-98.71l212.55,77.69v-25.38l-205.24-75.02
			l58.1-180.43l-74.36-41.31c25.84-31.29,81.64-98.95,137.33-166.95c35.47-43.31,62.9-77.01,84.17-103.29v-37.96
			c-26.36,32.76-60.4,74.57-96.97,119.27l-124.64-79.66l-8.54-175.69l230.15,18.88V739.13z M1029.55,630.41l13.11,269.63
			L899.04,775.28V624.99L1029.55,630.41z M709.81,357.54L994.38,479.6v101.62l-284.57-11.81V357.54z M556.97,775.31l125.49-159.3
			l192.73,8v145.02L556.97,775.31z M655.07,946.01V797.22l227.7-4.5l138.46,120.27l-237.59,104.45L655.07,946.01z M1137.15,1241.1
			l-51.82,160.9l-426.96-156.07l7.67-124.71l142.52-62.66L1137.15,1241.1z M1200.8,1018.09c-43.75,53.4-90.04,109.62-130.51,158.59
			l-234.31-130.16l242.49-106.6L1200.8,1018.09z"/>
		<g>
			<g>
				<polygon class="st10" points="1090.31,1425.1 622.63,1257.97 630.82,1105.63 1041.05,924.29 878.79,785.21 878.79,609.42 
					677.46,603.36 677.46,443.17 694.49,443.17 694.49,586.84 895.82,592.89 895.82,777.38 1072.65,928.95 647.27,1116.98 
					640.32,1246.2 1096.04,1409.07 				"/>
			</g>
		</g>
		<path class="st11" d="M641.92,386.37l43.64,86.62l45.81-85.5c13.56-31.36-8.21-67.14-42.35-68.56c-0.51-0.02-1.01-0.03-1.52-0.04
			c-0.51-0.01-1.02-0.01-1.52,0C651.82,319.46,629.15,354.68,641.92,386.37z M664.25,368.39c0.16-12.5,10.42-22.5,22.91-22.34
			c12.5,0.16,22.5,10.42,22.34,22.91c-0.16,12.5-10.42,22.5-22.91,22.34C674.09,391.15,664.09,380.89,664.25,368.39z"/>
		<path class="st12" d="M1047.93,1338.48l43.64,86.62l45.81-85.5c13.56-31.36-8.21-67.14-42.35-68.56
			c-0.51-0.02-1.01-0.03-1.52-0.04s-1.02-0.01-1.52,0C1057.82,1271.57,1035.16,1306.79,1047.93,1338.48z M1070.25,1320.51
			c0.16-12.5,10.42-22.5,22.91-22.34c12.5,0.16,22.5,10.42,22.34,22.91c-0.16,12.5-10.42,22.5-22.91,22.34
			C1080.1,1343.26,1070.1,1333,1070.25,1320.51z"/>
	</g>
	<path class="st4" d="M1081.56,119.3H741.5c-0.48,0-0.87-0.39-0.87-0.87v-15.42c0-0.48,0.39-0.87,0.87-0.87h340.06
		c0.48,0,0.87,0.39,0.87,0.87v15.42C1082.43,118.91,1082.04,119.3,1081.56,119.3z"/>
	<path class="st13" d="M949.65,1597.59c0,21.74-17.56,39.36-39.23,39.36c-21.67,0-39.23-17.62-39.23-39.36
		c0-21.74,17.56-39.36,39.23-39.36C932.09,1558.22,949.65,1575.85,949.65,1597.59z"/>
	<rect x="511.5" y="1474.16" class="st14" width="798.76" height="57.45"/>
	<rect x="511.5" y="162.33" class="st14" width="801.48" height="72.67"/>
</g>
<g>
	<path class="st6" d="M2409.57,783.55h-296.05c-10.23,0-18.52,8.32-18.52,18.58v122.59c0,10.26,8.29,18.58,18.52,18.58h233.08
		c9.43,13.21,26.54,36.86,28.05,36.86c1.41,0-1.31-22.34-3.23-36.86h38.15c10.23,0,18.52-8.32,18.52-18.58V802.13
		C2428.08,791.87,2419.79,783.55,2409.57,783.55z"/>
	<path class="st4" d="M2220.88,835.28h-85.26c-1.45,0-2.62-1.17-2.62-2.62v-2.85c0-1.45,1.17-2.62,2.62-2.62h85.26
		c1.45,0,2.62,1.17,2.62,2.62v2.85C2223.51,834.11,2222.33,835.28,2220.88,835.28z"/>
	<path class="st4" d="M2191.51,870.61h-55.89c-1.45,0-2.62-1.17-2.62-2.62v-2.85c0-1.45,1.17-2.62,2.62-2.62h55.89
		c1.45,0,2.62,1.17,2.62,2.62v2.85C2194.13,869.44,2192.96,870.61,2191.51,870.61z"/>
	<path class="st4" d="M2274.13,870.61h-61.01c-1.45,0-2.62-1.17-2.62-2.62v-2.85c0-1.45,1.17-2.62,2.62-2.62h61.01
		c1.45,0,2.62,1.17,2.62,2.62v2.85C2276.75,869.44,2275.58,870.61,2274.13,870.61z"/>
	<path class="st4" d="M2388.81,870.61h-90.44c-1.45,0-2.62-1.17-2.62-2.62v-2.85c0-1.45,1.17-2.62,2.62-2.62h90.44
		c1.45,0,2.62,1.17,2.62,2.62v2.85C2391.43,869.44,2390.25,870.61,2388.81,870.61z"/>
	<path class="st4" d="M2388.81,835.28H2245.6c-1.45,0-2.62-1.17-2.62-2.62v-2.85c0-1.45,1.17-2.62,2.62-2.62h143.21
		c1.45,0,2.62,1.17,2.62,2.62v2.85C2391.43,834.11,2390.25,835.28,2388.81,835.28z"/>
	<path class="st4" d="M2251.62,906.62h-116c-1.45,0-2.62-1.17-2.62-2.62v-2.85c0-1.45,1.17-2.62,2.62-2.62h116
		c1.45,0,2.62,1.17,2.62,2.62v2.85C2254.24,905.44,2253.07,906.62,2251.62,906.62z"/>
	<path class="st4" d="M2388.81,906.62h-116.04c-1.45,0-2.62-1.17-2.62-2.62v-2.85c0-1.45,1.17-2.62,2.62-2.62h116.04
		c1.45,0,2.62,1.17,2.62,2.62v2.85C2391.43,905.44,2390.25,906.62,2388.81,906.62z"/>
</g>
<g>
	<path class="st11" d="M869.45,1467.24c0,0,378.48,62.81,383.02,60.08s53.55-214.2,53.55-214.2s-312.98-56.27-318.05-56.27
		c-5.07,0-73.14,54.46-74.05,58.09C913.01,1318.57,869.45,1467.24,869.45,1467.24z"/>
	<path class="st11" d="M2023.96,1520.97c9.08,0.91,467.43-8.91,467.43-8.91l-34.49-105.45c0,0-63.53-96.08-97.12-94.33
		c-33.58,1.75-233.3-30.63-267.77-6.73c-34.47,23.91-65.33,4.85-81.67,62.03c-16.34,57.18-29.08,63.58-16.36,98.05
		C2006.71,1500.09,2023.96,1520.97,2023.96,1520.97z"/>
	<g>
		
			<ellipse transform="matrix(2.158150e-03 -1 1 2.158150e-03 -446.6033 2562.1948)" class="st15" cx="1060.56" cy="1504.88" rx="156.06" ry="156.01"/>
		<ellipse class="st16" cx="1060.56" cy="1504.88" rx="108.54" ry="108.58"/>
		<ellipse class="st17" cx="1060.56" cy="1504.88" rx="72.59" ry="72.62"/>
	</g>
	<g>
		
			<ellipse transform="matrix(2.162046e-03 -1 1 2.162046e-03 751.9362 3763.3267)" class="st15" cx="2261.7" cy="1504.88" rx="156.06" ry="156.01"/>
		<ellipse class="st16" cx="2261.7" cy="1504.88" rx="108.54" ry="108.58"/>
		<ellipse class="st17" cx="2261.7" cy="1504.88" rx="72.59" ry="72.62"/>
	</g>
	<path class="st6" d="M2619.87,1356.36c-13.19-86.97-55.83-105.24-181.95-130.46c-139.17-27.83-315.86-118.6-315.86-118.6
		s-301.33-147.64-375.16-164.58c-73.82-16.94-255.35-12.1-407.83-10.89c-152.48,1.21-242.04,43.57-319.49,104.08
		c-77.45,60.51-211.78,106.5-211.78,106.5l-24.4,4.36c-25.09,4.48-43.37,26.31-43.37,51.8v215.82c0,24.44,16.46,45.81,40.09,52.05
		l88.19,23.3l0,0c7.18,1.24,13.86-3.87,14.65-11.12c9.66-88.29,85.98-155.39,177-155.28c96.78,0.12,176.15,79.64,176.09,176.42
		c-0.01,11-1.02,21.76-2.96,32.19c-2,10.78,6.28,20.71,17.24,20.71h811.65c15.77,0,28.02-13.86,25.93-29.49
		c-1.01-7.52-1.54-15.2-1.56-22.99c-0.29-95.59,77.01-174.84,172.59-176.81c99.07-2.04,180.03,77.66,180.03,176.27
		c0,6.53-0.36,12.97-1.05,19.32c-1.96,17.96,11.94,33.7,30.01,33.7h116.71c21.22,0,38.42-17.2,38.42-38.42v-113.05
		C2623.08,1386.18,2622.12,1371.19,2619.87,1356.36z"/>
	<path class="st18" d="M745.19,1224.08h96.13c8.23,0,13.81,8.39,10.63,15.98l-10.8,25.77c-10.29,24.56-34.33,40.55-60.96,40.55h-35
		c-6.85,0-12.4-5.55-12.4-12.4v-57.48C732.78,1229.63,738.34,1224.08,745.19,1224.08z"/>
	<path class="st19" d="M2466.97,1264.02c52.94,8.11,113.91,58.24,113.91,58.24c14.57,15.66,2.54,41.09-18.82,39.74l-103.22-6.52
		c-21.44-1.35-39.72-16.02-45.7-36.65l0,0C2403.1,1284.15,2411.64,1255.54,2466.97,1264.02z"/>
	<path class="st20" d="M740.6,1422.4c-6.62-0.16-11.31,6.49-8.87,12.64c6.9,17.4,21.71,31.07,40.64,36.08l98.82,26.1
		c8.05,1.39,15.53-4.33,16.42-12.45c1.83-16.73,5.82-32.77,11.66-47.89c1.98-5.12-1.75-10.64-7.24-10.78L740.6,1422.4z"/>
	<path class="st20" d="M2439.81,1463.08c-7.51-0.18-13.3,6.4-12.34,13.85c1.07,8.28,1.62,16.71,1.62,25.28
		c0,7.24-0.4,14.4-1.17,21.43c-2.18,19.93,13.25,37.4,33.3,37.4h129.51c23.55,0,42.63-19.09,42.63-42.63v-33.51
		c0-9.5-7.58-17.27-17.08-17.5L2439.81,1463.08z"/>
	<path class="st21" d="M2122.29,1157.27c-1.72-0.94-173.29-95.07-287.06-147.77c-112.64-52.17-238.39-46.64-243.81-46.37
		c-14.45-0.33-315.29-6.86-407.78,21.97c-93.17,29.04-214.52,161.33-219.63,166.94l-1.41,1.55l32.63,153.12l3.5-0.2
		c94.9-5.36,167.54,19.9,210.06,73.03c32.14,40.17,36.11,82.58,36.15,83.01l0.31,3.64l342.15,8.79v0.02l3.95,0.08l4.22,0.11v-0.03
		l476.75,9.3l0.06-4.1c2.38-154.93,51.36-316.72,51.86-318.34l0.97-3.18L2122.29,1157.27z M1252.62,1458.22
		c-1.65-11.49-8.86-47.85-37.19-83.43c-30.54-38.35-92.34-82.56-213.68-76.61l-30.3-142.16c14.05-15.1,128.83-136.38,214.61-163.11
		c85.82-26.75,364.56-22.38,401.32-21.68v495.6L1252.62,1458.22z M2064.27,1476.15l-468.72-9.14V971.15
		c22.05-0.64,134.63-1.3,236.24,45.76c105.4,48.82,260.63,133.34,283.67,145.93C2108.63,1186.21,2067.21,1333.38,2064.27,1476.15z"
		/>
	<path class="st21" d="M731.74,1435.04c6.9,17.4,21.71,31.07,40.64,36.08l98.82,26.1c8.05,1.39,15.53-4.33,16.42-12.45
		c0.71-6.46,1.74-12.81,3.08-19.05L731.74,1435.04z"/>
	<path class="st21" d="M2428.86,1511.38c-0.19,4.12-0.5,8.21-0.94,12.26c-2.18,19.93,13.25,37.4,33.3,37.4h129.51
		c23.55,0,42.63-19.09,42.63-42.63v-7.02H2428.86z"/>
	<path class="st20" d="M2094.02,1511.38c-0.03-8.84,0.61-17.54,1.84-26.05c1.49-10.23-6.14-19.5-16.47-19.75l-844.2-20.6
		c-9.21-0.23-15.85,8.56-13.34,17.43c4.38,15.46,6.72,31.75,6.71,48.54c-0.01,11.13-1.03,22.03-2.98,32.59
		c-2.04,11.04,6.29,21.26,17.51,21.26h826.11c16.21,0,28.46-14.33,26.34-30.4C2094.56,1526.86,2094.04,1519.18,2094.02,1511.38z"/>
	<path class="st21" d="M2094.02,1511.38c0-0.15,0.01-0.29,0.01-0.44h-865.46c-0.01,11.13-1.03,22.03-2.98,32.59
		c-2.04,11.04,6.29,21.26,17.51,21.26h826.11c16.21,0,28.46-14.33,26.34-30.4C2094.56,1526.86,2094.04,1519.18,2094.02,1511.38z"/>
	<path class="st20" d="M1153.56,1218.68h-105.32c-2.5,0-4.52-2.02-4.52-4.52v-9.42c0-2.5,2.02-4.52,4.52-4.52h105.32
		c2.5,0,4.52,2.02,4.52,4.52v9.42C1158.08,1216.66,1156.05,1218.68,1153.56,1218.68z"/>
	<path class="st20" d="M1734.22,1227.91H1628.9c-2.5,0-4.52-2.02-4.52-4.52v-9.42c0-2.5,2.02-4.52,4.52-4.52h105.32
		c2.5,0,4.52,2.02,4.52,4.52v9.42C1738.74,1225.88,1736.72,1227.91,1734.22,1227.91z"/>
	<path class="st11" d="M1063.85,1171.74l466.55,4.41c0,0,28.55-0.77,32.44-27.64c3.89-26.87,3.56-141.96,3.56-141.96
		s-3.39-23.11-25.52-23.4c-13.45-0.18-126.17-8.24-235.8,5.12c-89.43,10.89-172.16,51.74-234.89,114.48l-33.12,33.13
		C1037.08,1135.88,1014.74,1171.28,1063.85,1171.74z"/>
	<path class="st11" d="M1618.33,1021.16v120.67c0,15.68,12.03,28.55,27.24,29.17l366.6,14.74c8.42,0.34,16.66-3.46,21.48-10.57
		c6.58-9.7,7.34-25.65-25.51-47.04c-57.13-37.2-202.47-117.66-256.23-125.44c-34.22-4.96-79-7.11-107.03-8.02
		C1630.35,994.18,1618.33,1006.18,1618.33,1021.16z"/>
</g>
<g>
	<path class="st11" d="M2393.41,1039.12l-2.41,2.16c-1.24,1.11-3.1,1.06-4.16-0.1l-42.7-47.1c-1.06-1.17-0.92-3.02,0.32-4.13
		l2.41-2.16c1.24-1.11,3.1-1.07,4.16,0.1l42.7,47.1C2394.79,1036.16,2394.65,1038.01,2393.41,1039.12z"/>
	<path class="st22" d="M2538.17,1000.86c-5.71-4.66-49.84,14.78-49.28,21.54c0.56,6.77-30.8,72.34-30.8,72.34l-54.19-43.35
		l-0.02,0.01c-0.48-1.57-5.62-18.43-5.87-21.45c-0.26-3.16-9.42-8.7-13.67-7.88c-4.25,0.82,3.64,6.17,4.15,7.15
		c1.41,2.67-4.04,3.68-4.04,3.68s-15.66-8.62-15.99-13.69c-0.33-5.07-3.57-15.7-6.95-13.48c-1.75,1.15-1.73,8.69-1.18,12.26
		c-1-4.06-2.43-8.65-3.82-9.1c-2.53-0.83-3.79,2.4-3.33,3.99c0.46,1.59,4.55,18.83,5.79,20.77c1.21,1.9,26.5,22.34,30.14,26.77
		c0,0,70.09,80.4,75.08,82.5c4.38,1.85,19.99-25.86,34.74-44.25C2513.7,1080.28,2556.01,1015.41,2538.17,1000.86z"/>
	<path class="st5" d="M2679.6,1592.02c0,0,9.63,9.43,9.85,12.89c0.22,3.46,0.85,40.54-3.08,44s-15.48,5.92-11.77,9.81
		c2.81,2.94,24.4,2.31,38.7,1.52c4.18-0.23,9.42-33.67,11.07-38.58c2.4-7.14,8.25-23.22,6.06-28.19
		c-1.06-2.42-6.16-7.41-13.33-12.06c-7.55-4.89-14.77-15.78-14.77-15.78L2679.6,1592.02z"/>
	<path class="st22" d="M2579.83,1613.98c0,0,8.62,24.43,8.63,24.49c0.64,3.87,3.16,13.43,3.16,16.95c0,13.22-59.41-11.22-46.1-17.08
		c1.21-0.53,4.99-4.77,5.38-9.26c0.61-6.93-5-15.63-5-15.63L2579.83,1613.98z"/>
	<g>
		<path class="st23" d="M2486.62,1159.04c0,0-4.33,43.8-4.33,44.45c0,70.85-14,209.24-11.33,222.56
			c6.49,32.49,76.38,198.23,76.38,198.23l37.77-4.53l-49.22-198.43l18.11-79.87l25.63-157.88L2486.62,1159.04z"/>
		<path class="st24" d="M2613.4,1197.78l7.17,41.51l19.39,170.84l73.85,166.97c0,0-10.39,24.3-25.71,27.71l-117.54-171.43
			l-73.01-219.36l2.56-48.74L2613.4,1197.78z"/>
	</g>
	<path class="st1" d="M2471.56,1054.75l52.38,5.37c0,0,2.4-43.09,2.4-63.64c0-24.94-2.12-57.05-5.12-56.36
		c-8.42,1.94-19.77,6.61-26.52,15.92C2471.33,988.25,2471.56,1054.75,2471.56,1054.75z"/>
	<path class="st3" d="M2497.29,992.08c-1.1,7.6-21.23,214.29-21.23,214.29c95.37,46.22,148,8.23,148,8.23s-3.12-145.14,0.62-164.89
		c2.47-13.07,5.56-99.92-2.88-102.35c-10.83-3.12-23.25-6.44-36.79-7.85c-11.56-1.2-56.44-1.9-64.47,0.81
		C2520.53,940.32,2501.9,960.11,2497.29,992.08z"/>
	<path class="st3" d="M2716.64,1581.17c0,0-22.2,62.71-30.89,65.74c-2.31,0.8-13.38,2.84-15.47,7.76c-0.63,1.48,0,6.42,0,6.42h46.27
		c0,0,5.85-27.63,8.16-39.77c0,0,12.25-29.66,10.89-32.36C2734.24,1586.26,2716.64,1581.17,2716.64,1581.17z"/>
	<path class="st3" d="M2595,1659.79l-6.8-21.57c0,0-14.29,6.07-21.43,5.05c-7.14-1.01-21.09-5.05-21.09-5.05
		c-28.52,9.42-51.88,13.99-47.63,21.57l0,0H2595z"/>
	<g>
		<path class="st22" d="M2464.21,1142.93c-0.22-0.09-0.99-0.7-1.44-1.07c1.7-20.25,1.39-39.87-4.94-46.5
			c0.15-0.32,1.54-3.27,2.98-6.33c7.34,5.7,10.83,20.83,9.46,45.4c-0.09,1.69-0.58,2.98-0.97,5.09
			C2467.17,1141.85,2465.24,1143.36,2464.21,1142.93z"/>
	</g>
	<path class="st25" d="M2718.51,1208.56c0.06-0.44,0.07-0.89,0.02-1.33c-1.41-14.31-13.25-134.51-15.24-139.62
		c-1.8-4.61-54.92-80.84-54.92-80.84l-26.11,35.69l51.09,68.37c1.15,4.35,19.58,85.48,19.58,85.48s3.78,14.79,5.47,23.65
		c-0.77,2.13-1.53,4.15-2.2,5.8c-1.69,3.54-3.69,6.44-5.5,8.88c-2.28,3.07-6.06,9.78-6.52,11.58c-0.54,2.09-1.52,6.43-2.07,9.04
		c-0.55,2.62-1.31,5.67-1.44,7.09c-0.08,0.86-0.97,2.59-1.65,3.81c-1.02,1.81,0.72,3.96,2.69,3.3c1.86-0.62,3.3-3.03,4.19-4.53
		c2.51-4.24,3.85-11.98,4.48-11.57c0.63,0.41,2.83,13.54,3.18,15.03s2.99,16.74,4.48,19.52s3.46,2.32,3.99,0.58
		c0.45-1.5-1.65-22.84-1.65-22.84s-0.26-2.72,0.93-1.87c1.19,0.85,3.13,20.22,3.96,23.06c0.83,2.83,2.71,4.34,4.31,2.06
		c1.94-2.77-1.4-23.32-1.4-23.32s-0.37-2.58,0.73-2.34s2.48,16.75,3.33,18.18s3.02,1.94,4.05-0.44c1.21-2.8-1.93-21.12-1.93-21.12
		s0.16-1.46,0.84-0.97c0.69,0.48,2.86,14.47,4.28,15.77c1.19,1.09,2.18,0.03,2.18,0.03c2.6-1.78-1.39-15.09-1.35-21.71
		c0.04-6.62-3.02-14.05-2.11-21.93C2718.25,1210.54,2718.41,1209.32,2718.51,1208.56z"/>
	<path class="st1" d="M2689.87,1035.05l-45.38,30.57c0,0-25.57-38.19-39.3-51.78c-17.2-17.03,6.26-69.2,17.34-66.25
		C2647.32,954.19,2689.87,1035.05,2689.87,1035.05z"/>
	<path class="st22" d="M2581.67,894.83l6.79,44.89c0,0-24.79,53.44-39.58,48.81c-12.42-3.89-4.78-51.18-4.78-51.18
		s6.77-25.4,4.74-38.1C2546.8,886.54,2581.67,894.83,2581.67,894.83z"/>
	<path class="st26" d="M2548.83,899.24c-2.03-12.71,32.83-4.41,32.83-4.41l0.56,3.72c-1.02,2.49-2.27,4.62-3.78,6.26
		c-7.79,8.41-19.96,13.46-30.48,13.84C2549.02,911.8,2549.67,904.46,2548.83,899.24z"/>
	<g>
		<path class="st22" d="M2587.39,831.33c0.98-0.36,7.9,51.12-5.22,65.29c-13.12,14.17-38.68,18.8-47.85,7.64
			c-10.14-12.34-9.63-67.67,10.76-82.24C2565.48,807.45,2587.39,831.33,2587.39,831.33z"/>
		<path class="st12" d="M2552.85,794.48c15.77,3.23,25.98,12.89,29.73,17.01c7.16,0.85,16.89,4.82,26.93,21.51
			c12.35,20.52,3.23,43.26-11.15,54.42s-14.18,24.04-14.18,24.04l-2.27-6.66c-1.68-5.05-2.36-10.4-1.8-15.7
			c0.34-3.18,1.02-6.62,2.33-9.44c3.46-7.45-7.43-12.4-10.48-18.6c-2.35-4.77-2.46-15.69-6.17-23.58l-4.42-6.02
			c0,0-10.21-7.97-20.19-5.72C2531.19,827.98,2532.62,790.34,2552.85,794.48z"/>
		<path class="st22" d="M2572.62,870.22c-0.1,6.28,2.74,11.42,6.36,11.49c3.61,0.06,6.63-4.98,6.73-11.26
			c0.1-6.28-2.74-11.42-6.36-11.49C2575.74,858.9,2572.73,863.94,2572.62,870.22z"/>
	</g>
	<path class="st4" d="M2551.32,884.73l-19.77-1.03c0,0,0.07,7.56,8.75,8.26C2550.88,892.83,2551.32,884.73,2551.32,884.73z"/>
</g>
<g>
	<path class="st26" d="M1479.91,627.81l111.62,221.55l117.17-218.67c34.69-80.21-21-171.72-108.31-175.35
		c-1.29-0.05-2.59-0.09-3.89-0.11c-1.3-0.02-2.6-0.01-3.89,0.01C1505.22,456.68,1447.25,546.75,1479.91,627.81z M1537.01,581.84
		c0.4-31.96,26.64-57.55,58.6-57.15c31.96,0.4,57.55,26.64,57.15,58.6c-0.4,31.96-26.64,57.55-58.6,57.15
		C1562.19,640.04,1536.61,613.8,1537.01,581.84z"/>
</g>
<path class="st11" d="M3036.39,1688.01H134.84c-6.93,0-12.55-5.62-12.55-12.55v-3.12c0-6.93,5.62-12.55,12.55-12.55h2901.55
	c6.93,0,12.55,5.62,12.55,12.55v3.12C3048.94,1682.39,3043.32,1688.01,3036.39,1688.01z"/>
</svg>
