<svg version="1.1" id="Layer_1" xmlns="http://www.w3.org/2000/svg" x="0" y="0" viewBox="0 0 792 612" xml:space="preserve">
  <style>
    .st1{fill:#231f20}.st2{fill:#fff}.st3{stroke-width:4}.st3,.st8{fill:none;stroke:#231f20;stroke-linecap:round;stroke-miterlimit:10}
  </style>
  <path fill="#f1f2f2" d="M0 0h792v612H0z"/>
  <path class="st1" d="M361.93 373.6h-96.11V231.03c0-26.18 21.22-47.41 47.41-47.41 26.9 0 48.7 21.8 48.7 48.7V373.6z"/>
  <circle class="st2" cx="319.48" cy="230.88" r="32.7"/>
  <path class="st3" d="M320.7 235.43c7.3-6.69 17.57-7.35 22.95-1.47"/>
  <path class="st1" d="M378.28 250.95l-22.49-.15a2.086 2.086 0 01-1.97-2.74l4.23-12.98a2.088 2.088 0 013.21-1.05l18.25 13.13c1.66 1.19.8 3.81-1.23 3.79zM232.07 369.39l33.5-21.23c1.21-.77 2.81-.16 3.21 1.21l6.16 21c.4 1.37-.62 2.75-2.05 2.76l-39.66.22c-2.15.02-2.98-2.8-1.16-3.96z"/>
  <path class="st2" d="M361.93 373.6h-58.66v-68.83c0-20.84 16.89-37.73 37.73-37.73h20.93V373.6z"/>
  <path d="M380.14 373h-22.41v-19.75h7.94c7.99 0 14.47 6.48 14.47 14.47V373z" fill="#f15a29"/>
  <path d="M370.75 373h-22.41v-19.75h7.94c7.99 0 14.47 6.48 14.47 14.47V373z" fill="#f7941d"/>
  <path class="st3" d="M274.06 219.48l-20.89-10.12M278.04 212.9l-20.1-13.95"/>
  <path class="st1" d="M348.16 285.69l-4.26 12.25-13.12-.07-3.85-12.29 10.75-7.53z"/>
  <path class="st2" d="M341.38 294.43l-3.91-2.24-3.96 2.13.81-4.62-3.14-3.33 4.41-.62 2.02-4.19 1.91 4.24 4.39.74-3.22 3.24z"/>
  <path fill="#bcbec0" d="M0 373.6h400.48V612H0z"/>
  <path fill="#45c6e5" d="M400.48 396.34H792V612H400.48z"/>
  <circle class="st2" cx="472.95" cy="443.76" r="8.71"/>
  <circle class="st2" cx="503.62" cy="451.33" r="6.91"/>
  <ellipse class="st2" cx="481.66" cy="468.05" rx="5.78" ry="5.19"/>
  <ellipse class="st2" cx="503.83" cy="476.14" rx="2.33" ry="2.09"/>
  <circle class="st2" cx="480.1" cy="490.35" r="1.47"/>
  <circle class="st2" cx="494.23" cy="505.01" r="1.47"/>
  <circle class="st2" cx="484.59" cy="521.13" r="1.1"/>
  <path class="st8" d="M171.05 372.81c0-14.3-16.26-25.88-36.36-25.88M171.05 372.81c0-26.09-9.47-47.2-21.18-47.2M171.05 372.16c0-21.14 10.28-38.24 22.99-38.24"/>
  <path class="st1" d="M326.68 331.87l-35.67-11.54a2.09 2.09 0 01-1.1-3.14l11.01-16.7a2.087 2.087 0 013.32-.22l24.66 28.24c1.4 1.59-.2 4.01-2.22 3.36z"/>
</svg>
