<svg version="1.1" id="_x2018_ëîé_x5F_1" xmlns="http://www.w3.org/2000/svg" x="0" y="0" viewBox="0 0 3200 2000" xml:space="preserve">
  <style>
    .st2{fill:#e2eefd}.st3{fill:#f8fcff}.st4{fill:#aec3ff}.st5{fill:#9db0f4}.st6{fill:#f99746}.st7{fill:#1d2949}.st8{fill:#739af0}.st9{fill:#2c3a64}.st10{fill:#afcdfb}.st11{fill:#a9453d}.st14{fill:#ed823a}.st15{fill:#e58339}.st18{fill:#ffb27d}.st19{fill:#ed975d}.st20{fill:#233862}.st21{fill:#2b478b}.st22{fill:#ffa25c}
  </style>
  <path d="M3073.91 1074.81c.02 9.86-.23 20.27-.72 31.14-.1 2.03-.19 4.1-.31 6.17-.43 8.17-1.01 16.6-1.73 25.22-.17 1.96-.33 3.92-.51 5.9-.21 2.38-.43 4.79-.67 7.19-.99 10.16-2.17 20.56-3.53 31.13-.27 2.14-.56 4.27-.86 6.41a985.538 985.538 0 01-4.7 31.14c-.35 2.14-.73 4.33-1.11 6.48-1.78 10.31-3.72 20.7-5.85 31.12-.44 2.19-.91 4.38-1.37 6.55-1.72 8.22-3.58 16.45-5.51 24.66-1.04 4.33-2.1 8.64-3.17 12.95a919.418 919.418 0 01-8.41 31.13c-.62 2.15-1.25 4.28-1.89 6.43-3.13 10.5-6.44 20.88-9.95 31.1-.74 2.16-1.49 4.33-2.26 6.49-3.09 8.72-6.33 17.31-9.68 25.73-1.85 4.62-3.74 9.17-5.65 13.68-4.58 10.7-9.43 21.1-14.5 31.1-1.11 2.18-2.22 4.34-3.34 6.48-5.77 10.9-11.82 21.3-18.19 31.08-1.34 2.08-2.7 4.12-4.1 6.14-7.72 11.33-15.89 21.75-24.52 31.04-2.77 3.01-5.59 5.9-8.46 8.66-13.84 13.36-28.75 23.91-44.77 30.97-1.17.52-2.35 1.02-3.53 1.5-.3.12-.59.24-.89.36-2.33.93-4.66 1.77-7.02 2.55l-124.45.18-351.8.52-436.65-2.62-170.69-1.03-337.73-2.02-1020.13-6.12s-189.21-111.98-189.21-306.35c0-2.68.03-5.35.1-8.05 2.79-103.89 30.63-301.89 269.97-404.68 17.19-7.37 35.48-14.27 54.94-20.61 17.39-5.66 35.71-10.87 55.02-15.58 24.54-5.99 50.64-11.17 78.43-15.44 2.72-.43 5.47-.84 8.23-1.24 13.28-1.94 26-4.22 38.2-6.85 322-69.16 283.31-368.14 708.02-388.97 38.89-1.92 81.66-1.49 128.96 1.65 72.62 4.84 132.46 22.54 185.93 43.35 56.57 21.98 106.03 47.43 155.99 64.7l3.42 1.18c49.01 16.59 98.66 25.09 156.15 14.57 2.78-.49 5.61-1.06 8.45-1.66 63.65-13.52 123.1-23.48 178.61-30.2 1.15-.13 2.29-.28 3.44-.41 133.43-15.84 244.11-12.79 336.12 4.86 1.15.22 2.3.43 3.43.67 39.75 7.8 75.97 18.35 109.03 31.28 9.23 3.61 18.2 7.39 26.93 11.37.26.12.54.23.8.36 1.46.67 2.91 1.35 4.35 2.02 1.39.65 2.78 1.31 4.17 1.96.13.06.25.13.38.19 10.76 5.16 21.15 10.6 31.19 16.3 11.89 6.77 23.3 13.9 34.18 21.38 3.1 2.13 6.18 4.28 9.2 6.47a458.386 458.386 0 0138.78 31.27c2.41 2.15 4.76 4.33 7.1 6.52a467.176 467.176 0 0130.34 31.25c2.45 2.76 4.84 5.54 7.22 8.34a488.283 488.283 0 0128.86 37.74c7.06 10.17 13.72 20.59 20.04 31.21 1.37 2.3 2.72 4.63 4.06 6.95 5.75 9.98 11.18 20.12 16.32 30.42 1.91 3.85 3.79 7.69 5.63 11.58 3.2 6.72 6.27 13.51 9.22 20.35 2.48 5.72 4.88 11.47 7.21 17.25 4.13 10.3 8.04 20.69 11.71 31.18.76 2.16 1.52 4.34 2.25 6.5 2.48 7.26 4.87 14.56 7.15 21.9.96 3.08 1.9 6.18 2.83 9.28.65 2.16 1.3 4.38 1.95 6.56.55 1.9 1.08 3.8 1.63 5.69 2.15 7.62 4.23 15.28 6.21 22.96.22.83.43 1.67.65 2.52.55 2.16 1.09 4.33 1.64 6.49 2.56 10.35 4.99 20.74 7.26 31.16.47 2.14.92 4.29 1.39 6.43 2.2 10.38 4.27 20.77 6.21 31.17.41 2.16.81 4.33 1.21 6.49 1.17 6.4 2.29 12.78 3.37 19.15.45 2.64.86 5.42 1.23 8.31.15 1.2.3 2.44.44 3.7.31 2.68.59 5.47.83 8.33.82 9.47 1.3 19.91 1.45 31.14.01 2.13.03 4.3.03 6.48z" fill="#ebf3fa"/>
  <path d="M3071.15 1025.15v112.19c-.17 1.96-.33 3.92-.51 5.9-.21 2.38-.43 4.79-.67 7.19-.99 10.16-2.17 20.56-3.53 31.13-.27 2.14-.56 4.27-.86 6.41a985.538 985.538 0 01-4.7 31.14c-.35 2.14-.73 4.33-1.11 6.48-1.78 10.31-3.72 20.7-5.85 31.12-.44 2.19-.91 4.38-1.37 6.55-1.72 8.22-3.58 16.45-5.51 24.66-1.04 4.33-2.1 8.64-3.17 12.95a919.418 919.418 0 01-8.41 31.13c-.62 2.15-1.25 4.28-1.89 6.43-3.13 10.5-6.44 20.88-9.95 31.1-.74 2.16-1.49 4.33-2.26 6.49-3.09 8.72-6.33 17.31-9.68 25.73-1.85 4.62-3.74 9.17-5.65 13.68-4.58 10.7-9.43 21.1-14.5 31.1-1.11 2.18-2.22 4.34-3.34 6.48-5.77 10.9-11.82 21.3-18.19 31.08-1.34 2.08-2.7 4.12-4.1 6.14-7.72 11.33-15.89 21.75-24.52 31.04-2.77 3.01-5.59 5.9-8.46 8.66-13.84 13.36-28.75 23.91-44.77 30.97-1.17.52-2.35 1.02-3.53 1.5-.3.12-.59.24-.89.36l-919.92.63-170.69-1.03-337.73-2.02-1020.13-6.12s-189.21-111.98-189.21-306.35c0-2.68.03-5.35.1-8.05 2.79-103.89 30.63-301.89 269.97-404.68v93.54h54.94V814.5c17.39-5.66 35.71-10.87 55.02-15.58 24.54-5.99 50.64-11.17 78.43-15.44 2.72-.43 5.47-.84 8.23-1.24 13.28-1.94 26-4.22 38.2-6.85v138.95h60.72v-32.46l71.62.29v-52.6h14.42v-10.41h1.9v10.41h55.29v.01h11.07v-10.42h1.9v10.42h13.34v104.6h85.26v38.49h47.38v-22.36h43.95v-88.75h21.91v-41.4h3.32v41.4h52.54v-77.59h5.15v77.59h34.75v-1.07h-.06v-9.85h.06v-9.33h-.06v-15.5h.06v-9.92h-.06v-15.5h.06v-9.91h-.06v-15.51h.06v-10.7h-.06V748.8h.06v-13.62h-.06v-15.51h.06v-10.28h10.35v-11.6h1.66v11.6h76.71v-11.6h1.65v11.6h14v81.12l9.86.06v-.06h-.08V775h.08v-10.7h-.08v-15.5h.08v-10.66h-.08v-15.51h.08v-.05h93.02v.05h15.99c.83.42 1.65.82 2.48 1.24v88.53h68v116.25h54.93V713.66h11.96v-15.04h2.14v15.04h43.38v-15.04h2.15v15.04h61.43v-15.04h2.15v15.04h38.65v-15.04h2.14v15.04H1804v200.68h60.71v-32.46l71.62.29v-52.6h14.42v-10.41h1.9v10.41h55.29v.01h11.05v-10.42h1.91v10.42h13.34v104.6h85.27v38.49h47.38v-22.36h43.95v-88.75h21.91v-41.4h3.32v41.4h52.54v-77.59h5.15v77.59h34.75v-1.07h-.06v-9.85h.06v-9.33h-.06v-15.5h.06v-9.92h-.06v-15.5h.06v-9.91h-.06v-15.51h.06v-10.7h-.06V748.8h.06v-13.62h-.06v-15.51h.06v-10.28h10.36v-11.6h1.65v11.6h76.7v-11.6h1.66v11.6h14v81.12l9.72.06h.14v-.06h-.08V775h.08v-10.7h-.08v-15.5h.08v-10.66h-.08v-15.51h.08v-.05h93.02v.05h15.98c.83.42 1.65.82 2.49 1.24v88.53h114.14v116.26h54.94v-215h11.95v-15.04h2.15v15.04h43.38v-15.04h2.14v15.04h61.44v-15.04h2.14v15.04h56.68v200.69h60.72v-32.47l71.62.29v-13.25c.96 3.08 1.9 6.18 2.83 9.28.65 2.16 1.3 4.38 1.95 6.56.55 1.9 1.08 3.8 1.63 5.69 2.15 7.62 4.23 15.28 6.21 22.96.22.83.43 1.67.65 2.52.55 2.16 1.09 4.33 1.64 6.49 2.56 10.35 4.99 20.74 7.26 31.16.47 2.14.92 4.29 1.39 6.43 2.2 10.38 4.27 20.77 6.21 31.17.41 2.16.81 4.33 1.21 6.49 1.17 6.4 2.29 12.78 3.37 19.15.48 2.66.89 5.44 1.27 8.33z" fill="#d5e5fb"/>
  <path class="st2" d="M1666.8 713.66h137.25v34.02H1666.8zM1666.8 766.02h137.25v34.02H1666.8zM1666.8 819.47h137.25v34.02H1666.8zM1666.8 873.77h137.25v34.02H1666.8zM1666.8 926.17h137.25v34.02H1666.8zM2328.72 709.4h64.04v20.66h-64.04zM2328.72 741.2h64.04v20.66h-64.04zM2328.72 773.66h64.04v20.66h-64.04zM2328.72 806.64h64.04v20.66h-64.04zM2328.72 838.46h64.04v20.66h-64.04zM2328.72 873.48h64.04v20.66h-64.04zM2328.72 905.28h64.04v20.66h-64.04zM2328.72 937.74h64.04v20.66h-64.04zM2328.72 970.72h64.04v20.66h-64.04zM2328.72 1002.54h64.04v20.66h-64.04zM2442.63 722.95h68.63v20.66h-68.63zM2442.63 754.74h68.63v20.66h-68.63zM2442.63 787.21h68.63v20.66h-68.63zM2442.63 820.19h68.63v20.66h-68.63zM2442.63 852.01h68.63v20.66h-68.63z"/>
  <g>
    <path class="st2" d="M2442.63 885.18h68.63v20.66h-68.63zM2442.63 916.98h68.63v20.66h-68.63zM2442.63 949.44h68.63v20.66h-68.63zM2442.63 982.42h68.63v20.66h-68.63zM2442.63 1014.24h68.63v20.66h-68.63z"/>
  </g>
  <g>
    <path class="st2" d="M2442.63 1050.74h68.63v20.66h-68.63zM2442.63 1082.54h68.63v20.66h-68.63zM2442.63 1115h68.63v20.66h-68.63zM2442.63 1147.98h68.63v20.66h-68.63zM2442.63 1179.8h68.63v20.66h-68.63z"/>
  </g>
  <path class="st2" d="M2778.27 713.66h124.96v34.02h-124.96zM2778.27 766.02h124.96v34.02h-124.96zM2778.27 819.47h124.96v34.02h-124.96zM2778.27 873.77h124.96v34.02h-124.96zM2778.27 926.17h124.96v34.02h-124.96z"/>
  <g>
    <path class="st2" d="M1274.82 709.4h68.63v20.66h-68.63zM1274.82 741.2h68.63v20.66h-68.63zM1274.82 773.66h68.63v20.66h-68.63zM1274.82 806.64h68.63v20.66h-68.63zM1274.82 838.46h68.63v20.66h-68.63z"/>
  </g>
  <g>
    <path class="st2" d="M1274.82 873.48h68.63v20.66h-68.63zM1274.82 905.28h68.63v20.66h-68.63zM1274.82 937.74h68.63v20.66h-68.63zM1274.82 970.72h68.63v20.66h-68.63zM1274.82 1002.54h68.63v20.66h-68.63z"/>
  </g>
  <g>
    <path class="st2" d="M1391.03 722.95h78v20.66h-78zM1391.03 754.74h78v20.66h-78zM1391.03 787.21h78v20.66h-78zM1391.03 820.19h78v20.66h-78zM1391.03 852.01h78v20.66h-78z"/>
  </g>
  <g>
    <path class="st2" d="M1391.03 885.18h78v20.66h-78zM1391.03 916.98h78v20.66h-78zM1391.03 949.44h78v20.66h-78zM1391.03 982.42h78v20.66h-78zM1391.03 1014.24h78v20.66h-78z"/>
  </g>
  <g>
    <path class="st2" d="M1391.03 1050.74h78v20.66h-78zM1391.03 1082.54h78v20.66h-78zM1391.03 1115h78v20.66h-78zM1391.03 1147.98h78v20.66h-78zM1391.03 1179.8h78v20.66h-78z"/>
  </g>
  <path class="st3" d="M1306.46 593.55s22.57-37.27 76.53-33.13c0 0 78.35-62.11 161.89-8.28 0 0 88.81-13.34 154.58 11.55 43.85 16.59 58.33 34 58.33 34l-451.33-4.14zM1789.29 698.43s14.62-25.35 49.59-22.53c0 0 50.76-42.25 104.9-5.63 0 0 57.54-9.07 100.16 7.86 28.41 11.29 37.8 23.13 37.8 23.13l-292.45-2.83zM2202 586.53s13.31-24.66 45.16-21.92c0 0 46.23-41.1 95.52-5.48 0 0 52.4-8.83 91.21 7.64 25.87 10.98 34.42 22.5 34.42 22.5L2202 586.53z"/>
  <g>
    <path class="st4" d="M1060.68 617.5h20.25v922.11h-20.25z"/>
    <path class="st5" d="M1099.52 1554.63s-7.58 6.71-28.71 6.71c-19.86 0-28.71-6.71-28.71-6.71v-216.62c0-14.97 12.14-27.11 27.11-27.11h1.86c15.72 0 28.46 12.74 28.46 28.46v215.27z"/>
    <path class="st4" d="M1105.64 816.28h-69.67c-7.7 0-13.95-6.25-13.95-13.95V544.14c0-7.7 6.24-13.95 13.95-13.95h69.67c7.7 0 13.95 6.24 13.95 13.95v258.19c0 7.7-6.24 13.95-13.95 13.95z"/>
    <circle transform="rotate(-13.628 1071.463 670.77)" class="st5" cx="1071.33" cy="670.7" r="37.44"/>
    <circle transform="rotate(-80.055 1071.305 755.424)" class="st5" cx="1071.33" cy="755.44" r="37.44"/>
    <circle transform="rotate(-80.648 1071.295 585.024)" class="st6" cx="1071.33" cy="585.01" r="37.44"/>
  </g>
  <g>
    <path class="st7" d="M1857.81 1493.28h841.9l284.33-25.61s-50.88-126.77-64.75-128.67c-13.87-1.9-1034.81 0-1034.81 0l-26.67 154.28z"/>
    <path class="st8" d="M3105.51 1480.79c-20.95 8.57-147.6 10.48-147.6 10.48s2.86-155.22-127.6-137.13c-130.45 18.09-107.65 146.92-107.65 146.92l-627.19 11.2s10.19-163.63-128.29-146.42c-115.05 14.3-85.49 145.8-85.49 145.8-59.36 3.06-91.18-5.89-108.05-15.23-.01 0-.01-.01-.01-.01-12.64-17.82-5.27-28.24-4.54-30.08.72-1.83-1.83-32.16-2.19-36.54-.21-2.47 5.13-8.75 9.85-13.78 3.89-4.15 4.15-10.52.57-14.94l-6.27-7.74a30.41 30.41 0 01-4.24-31.33l12.46-28.54.01-.01c40.64-69.82 359.32-88.88 359.32-88.88 48.4-27.82 88.53-48.5 119.92-63.52 50.07-23.96 107.16-47.32 162.41-52.78 149.58-14.79 272.58 1.96 302.73 6.85 35.23 5.71 212.35 82.85 225.69 89.51 13.32 6.67 122.05 15.7 136.02 17.4 13.97 1.69 13.55 15.66 13.55 15.66l1.92 12.39 7.3 47.19 1.78 11.52c10.16 5.08 10.17 19.63 10.17 19.63s6.36 123.81-14.58 132.38z"/>
    <circle transform="rotate(-45.001 1985.723 1467.693)" class="st9" cx="1985.73" cy="1467.66" r="96.58"/>
    <path class="st10" d="M1985.73 1543.19c-41.65 0-75.53-33.88-75.53-75.53s33.88-75.53 75.53-75.53 75.53 33.88 75.53 75.53-33.88 75.53-75.53 75.53zm0-144.07c-37.8 0-68.55 30.75-68.55 68.55s30.75 68.55 68.55 68.55 68.55-30.75 68.55-68.55-30.75-68.55-68.55-68.55z"/>
    <path class="st10" d="M1998.63 1539.78h-27.07l8.69-74.17-9.93-70.45 30.93 1.91-10.31 68.54z"/>
    <path class="st10" d="M1929.58 1514.74l-13.53-23.44 68.58-29.55 56.05-43.82 13.81 27.74-64.52 25.33z"/>
    <path class="st10" d="M1918.73 1439.71l14.87-22.61 57.2 48.01 64.31 30.41-18.58 24.79-51.61-46.27z"/>
    <path class="st10" d="M1960.38 1467.53c0-13.92 11.28-25.2 25.2-25.2s25.2 11.28 25.2 25.2-11.28 25.2-25.2 25.2c-13.91 0-25.2-11.28-25.2-25.2z"/>
    <circle transform="rotate(-76.714 2842.351 1467.688)" class="st9" cx="2842.1" cy="1467.66" r="96.58"/>
    <path class="st10" d="M2842.1 1543.19c-41.65 0-75.53-33.88-75.53-75.53s33.88-75.53 75.53-75.53 75.53 33.88 75.53 75.53-33.88 75.53-75.53 75.53zm0-144.07c-37.8 0-68.55 30.75-68.55 68.55s30.75 68.55 68.55 68.55 68.55-30.75 68.55-68.55-30.75-68.55-68.55-68.55z"/>
    <path class="st10" d="M2854.99 1539.78h-27.06l8.69-74.17-9.93-70.45 30.93 1.91-10.31 68.54z"/>
    <path class="st10" d="M2785.95 1514.74l-13.53-23.44 68.58-29.55 56.05-43.82 13.8 27.74-64.51 25.33z"/>
    <path class="st10" d="M2775.1 1439.71l14.87-22.61 57.2 48.01 64.31 30.41-18.58 24.79-51.61-46.27z"/>
    <path class="st10" d="M2816.75 1467.53c0-13.92 11.28-25.2 25.2-25.2s25.2 11.28 25.2 25.2-11.28 25.2-25.2 25.2-25.2-11.28-25.2-25.2zM1892.44 1342.39l-24.79 26.87a18.794 18.794 0 01-13.82 6.05h-76.04c-4.48 0-7.31-4.82-5.13-8.74l2.17-3.88c2.69-4.8 6-9.13 9.81-12.89.01-.01.02-.01.02-.01a57.718 57.718 0 0140.55-16.64h63.18c4.81 0 7.31 5.71 4.05 9.24z"/>
    <path class="st7" d="M1811.67 1467.66h-21.56c-7.14 0-13.71 3.86-17.19 10.09l-.74 1.32c-.75 1.34.22 2.98 1.75 2.98h25.95c1.79 0 3.5-.75 4.72-2.07l8.46-9.17c1.1-1.2.25-3.15-1.39-3.15z"/>
    <path class="st10" d="M2855.96 1235.44l-322.39 7.66c-6.32.15-11.52-4.93-11.52-11.25v-74.28c0-5.85 4.78-10.56 10.63-10.47 137.48 1.91 184.59 5.74 212.85 15.49 24.92 8.6 83.2 43.95 113.32 61.89 5.07 3.02 3.03 10.82-2.89 10.96zM2493.99 1146.61c5.23.06 10.35.12 15.36.18v96.88l-311.02 7.38c-4.05.1-5.73-5.15-2.37-7.42 36.34-24.49 158.06-98.61 298.03-97.02z"/>
    <path class="st10" d="M2854.86 1235.46l-.17.01V1222c1.1.66 2.17 1.29 3.21 1.91 5.36 3.19 3.2 11.41-3.04 11.55z"/>
    <path class="st8" d="M2522.05 1247.58l-38.09-3.02 2.54-103.61h35.55zM2763.3 1247.58h-17.78v-93.04l17.78 10.67z"/>
    <path class="st9" d="M2237.14 1218.49l9.48 31.41-51.88 1.23c-3.03.07-4.33-3.81-1.88-5.57 11.72-8.42 33.43-23.43 44.28-27.07z"/>
    <path class="st7" d="M2192.49 1253.73c-2.12 0-3.97-1.34-4.64-3.36-.68-2.06.07-4.28 1.85-5.52l1.08-.75c1.12-.78 2.38-1.64 3.76-2.57 1.14-.77 2.36-1.58 3.66-2.44l1.96-1.29c1.49-.98 3.07-1.99 4.74-3.06 1.19-.76 2.42-1.54 3.7-2.35l.21-.13c.18-.11.37-.23.55-.34 1.08-.67 2.21-1.38 3.38-2.1l.26-.16c.38-.24.78-.48 1.17-.72.58-.36 1.19-.73 1.8-1.1.86-.52 1.72-1.04 2.61-1.57 2.49-1.5 5.17-3.08 7.96-4.69.86-.5 1.74-1.01 2.63-1.52 1.76-1.01 3.57-2.04 5.42-3.07l1.31-.73c3.75-2.08 7.54-4.15 11.29-6.14l1.23-.65c.57-.3 1.14-.6 1.71-.91 7.13-3.74 14.46-7.4 21.79-10.9l2.28-1.08c2.29-1.08 4.61-2.16 6.97-3.24.78-.36 1.58-.72 2.38-1.08 1.57-.72 3.17-1.43 4.79-2.15l2.43-1.07c2.42-1.07 5-2.18 7.89-3.39 1.49-.63 3-1.25 4.5-1.87 10.17-4.19 20.53-8.13 30.8-11.71l2.25-.78 2.55-.87 3.2-1.07c.87-.29 1.73-.57 2.6-.85l.1-.03c.9-.3 1.81-.59 2.73-.88 1.65-.53 3.31-1.06 4.98-1.57 1.13-.36 2.29-.71 3.44-1.06 1.76-.53 3.53-1.06 5.3-1.58l2.95-.85c1.86-.53 3.72-1.05 5.6-1.56 3.71-1.02 7.5-2.01 11.24-2.95l.22-.06c.33-.08.66-.17 1-.25 1.59-.4 3.22-.79 4.86-1.18.96-.23 1.95-.46 2.94-.69l.74-.17c.73-.17 1.47-.34 2.2-.5.98-.22 1.96-.44 2.95-.66.99-.22 1.98-.43 2.97-.64 1-.21 2-.42 2.99-.62.98-.21 1.99-.41 3-.61l.16-.03c.95-.19 1.9-.37 2.84-.55.94-.18 1.89-.36 2.84-.54 1.07-.2 2.14-.39 3.21-.58.68-.13 1.37-.25 2.06-.37l.97-.17c2.03-.35 4.05-.69 6.08-1 1.01-.16 2.04-.32 3.06-.48l.16-.02c1.8-.27 3.6-.53 5.4-.78 3.36-.46 6.73-.89 10.04-1.28l.22-.03c.93-.11 1.85-.21 2.78-.31.64-.07 1.33-.15 2-.21.66-.08 1.38-.15 2.1-.22.76-.08 1.55-.16 2.35-.23 1.04-.1 2.1-.2 3.16-.29 1-.09 2.02-.17 3.04-.25.81-.07 1.58-.13 2.36-.18l4.51-.31c.89-.06 1.78-.11 2.67-.16l.39-.02c.97-.06 1.98-.11 2.97-.15.79-.04 1.59-.08 2.39-.11h.08l2.14-.09 1.77-.06 2.11-.06c2.78-.09 5.36.94 7.34 2.87a10.04 10.04 0 013.06 7.25v80.29c0 6.67-5.43 12.23-12.1 12.39l-284.32 6.75c-.04.02-.08.02-.12.02zm46.95-33.61l-1.76.98c-2.05 1.14-4.04 2.27-5.98 3.38-.89.51-1.76 1.01-2.61 1.51-2.77 1.6-5.42 3.16-7.9 4.65-.89.53-1.75 1.05-2.59 1.56-.6.36-1.2.73-1.79 1.09-.4.24-.77.47-1.14.7l-.27.17c-1.16.71-2.29 1.41-3.38 2.09l-.72.45c-1.26.79-2.49 1.57-3.67 2.33-1.65 1.05-3.21 2.06-4.68 3.02l-1.95 1.28c-1.29.85-2.49 1.65-3.62 2.41-1.36.92-2.6 1.76-3.71 2.54l-.52.36 53.41-1.27 230.25-5.47c3.94-.09 7.14-3.37 7.14-7.31v-80.29c0-1.37-.54-2.65-1.52-3.61a5.02 5.02 0 00-3.66-1.43l-2.08.06-1.77.06c-.7.02-1.39.05-2.09.08h-.08c-.79.03-1.58.07-2.36.11-.98.04-1.96.09-2.93.15l-.39.02c-.87.05-1.74.1-2.62.16l-4.48.3-2.29.18c-1.05.08-2.05.16-3.04.25-1.05.09-2.09.18-3.13.28-.79.07-1.55.14-2.32.23-.71.07-1.39.13-2.05.21-.7.07-1.35.14-2 .21-.94.1-1.84.2-2.75.31l-.21.02c-3.26.38-6.6.8-9.92 1.26-1.78.25-3.56.5-5.33.77l-.15.02c-1.01.16-2.03.31-3.04.47-2.02.32-4.02.65-6.01.99l-.97.17-2.03.36c-1.07.19-2.13.38-3.18.58-.94.18-1.87.35-2.81.54-.95.18-1.88.37-2.82.55l-.16.03c-.99.19-1.97.39-2.94.6-1 .21-1.99.41-2.97.62l-2.93.63c-.98.21-1.95.43-2.93.65-.73.16-1.45.33-2.17.49l-.75.17c-.97.22-1.93.45-2.89.68a285.308 285.308 0 00-5.77 1.41l-.24.06c-3.71.93-7.46 1.91-11.14 2.92-1.86.51-3.71 1.02-5.54 1.55l-2.93.84c-1.75.51-3.5 1.04-5.25 1.56-1.14.34-2.27.69-3.4 1.04-1.66.52-3.31 1.04-4.95 1.56-.9.28-1.79.57-2.68.87l-.11.04c-.86.28-1.71.56-2.57.84l-3.19 1.07c-.84.28-1.68.57-2.51.85l-2.24.78a584.128 584.128 0 00-30.54 11.61c-1.5.62-2.99 1.24-4.47 1.86-2.85 1.2-5.41 2.3-7.81 3.36l-2.42 1.07c-1.6.71-3.19 1.41-4.75 2.13-.8.36-1.58.71-2.35 1.07-2.35 1.07-4.65 2.14-6.92 3.22l-2.27 1.08c-7.26 3.47-14.53 7.1-21.6 10.8-.57.3-1.14.61-1.72.91l-1.22.64c-3.37 1.8-6.78 3.64-10.15 5.51zM2768.61 1240.16c-1.9 0-3.7-.75-5.1-2.11-1.56-1.52-2.46-3.69-2.46-5.95v-54.21c0-3.08.46-7.02 2.95-8.58 2.26-1.41 6.06-.38 8.45.79 2.65 1.3 4.5 2.24 5.5 2.78.11.05.25.13.4.21l1.08.59c13.51 7.38 32.74 18.99 57.17 34.52 1.04.66 2.08 1.32 3.1 1.97 2.46 1.57 4.86 3.11 7.16 4.59l8.57 5.53c1.49.96 2.92 1.89 4.28 2.78.19.12.4.26.61.39l.19.12c2.85 1.86 4.12 5.4 3.15 8.82-.92 3.24-3.57 5.39-6.76 5.47l-.93.02-87.17 2.26c-.06.01-.13.01-.19.01zm.48-66.36c-.73 0-1.32.28-1.67.5-1.17.73-1.87 2.07-1.87 3.59v54.21c0 1.05.4 2.05 1.1 2.73.57.56 1.29.85 2.04.83l88.1-2.29c1.8-.05 2.4-1.69 2.54-2.2.33-1.17.19-2.87-1.27-3.82l-.19-.12-.59-.38c-1.38-.9-2.81-1.83-4.29-2.79l-8.55-5.52c-2.3-1.48-4.7-3.02-7.15-4.58-1.02-.65-2.05-1.31-3.09-1.96-24.35-15.48-43.5-27.04-56.92-34.38l-1.09-.59-.33-.18c-.97-.53-2.82-1.46-5.38-2.72a3.22 3.22 0 00-1.39-.33z"/>
    <path class="st9" d="M2237.14 1218.49l9.48 31.41-51.88 1.23c-3.03.07-4.33-3.81-1.88-5.57 11.72-8.42 33.43-23.43 44.28-27.07z"/>
    <path class="st7" d="M2533.28 1245.63c-3.61 0-7.02-1.38-9.62-3.92a13.693 13.693 0 01-4.16-9.87v-74.28c0-3.51 1.38-6.8 3.88-9.26 2.5-2.47 5.82-3.78 9.33-3.75 141.9 1.97 185.84 5.19 213.71 15.65l1.65.62v79.72l-214.44 5.09h-.35zm-.76-96c-2.1 0-4.08.81-5.58 2.29a7.887 7.887 0 00-2.36 5.65v74.28c0 2.37.93 4.58 2.63 6.23a8.624 8.624 0 006.29 2.47l209.48-4.97v-71.22c-27.12-9.63-73.62-12.83-210.35-14.73h-.11z"/>
    <path class="st11" d="M3108.14 1317.29h-60.7a29.46 29.46 0 01-23.15-11.24l-22.96-29.17c-2.16-2.75-.21-6.78 3.29-6.78h96.21l7.31 47.19z"/>
    <g>
      <path transform="rotate(-89.341 2506.186 1308.538)" class="st7" d="M2343.53 1307.2h325.29v2.54h-325.29z"/>
    </g>
    <g>
      <path transform="rotate(-1.146 2408.459 1474.13)" class="st7" d="M2094.18 1472.58h627.62v2.54h-627.62z"/>
    </g>
    <path class="st9" d="M2469.42 1311.06c0 3.44-15.35 6.23-34.28 6.23s-34.28-2.79-34.28-6.23c0-3.44 15.35-6.23 34.28-6.23s34.28 2.79 34.28 6.23zM2788.69 1311.06c0 3.44-15.35 6.23-34.28 6.23s-34.28-2.79-34.28-6.23c0-3.44 15.35-6.23 34.28-6.23s34.28 2.79 34.28 6.23z"/>
    <g>
      <path class="st7" d="M2697.26 1467.73l-2.54-.14c1.75-32.34 11.34-59.59 28.49-81 13.72-17.13 32.27-30.56 55.14-39.92 34.79-14.24 69.24-14.61 76.34-14.5v-96.72h2.54v99.34l-1.32-.06c-.38-.02-38.33-1.39-76.67 14.32-22.45 9.2-40.64 22.38-54.08 39.17-16.78 20.98-26.17 47.73-27.9 79.51z"/>
    </g>
    <g>
      <path class="st7" d="M2170.72 1478.52c-.98-83.9 3.69-141.94 7.78-175.87 4.44-36.81 9.19-54.01 9.24-54.18l2.45.68c-.19.67-18.8 69.17-16.92 229.33l-2.55.04z"/>
    </g>
    <g>
      <path class="st7" d="M2483 1145.82h49.67v2.54H2483z"/>
    </g>
    <path class="st9" d="M1822.08 1375.32h-44.29c-4.48 0-7.31-4.82-5.13-8.74l2.17-3.88c2.69-4.8 6-9.13 9.81-12.89.01-.01.02-.01.02-.01l26.81 4.44-10.59 11.6 12.66 2.55 8.54 6.93z"/>
    <g>
      <path class="st8" d="M1807.83 1303.7c-1.03 0-2.04-.48-2.68-1.38a3.296 3.296 0 01.77-4.59c.21-.15 5.41-3.84 22.13-14.02 17.54-10.68 34.28-12.89 45.35-13.63 6.81-.46 13.53-10.32 17.54-16.22 1.47-2.16 2.63-3.86 3.65-4.96 1.59-1.72 3.24-3.5 124.52-5.82 59.27-1.13 132.45-1.8 119.45-1.8h13.54c1.8 0 1.87 4.3 2.19 6.08 4.01 21.88-19.75 10.99-21.56 11.01-90.53.99-221.49-7.11-233.78-4.46-.68.87-1.61 2.23-2.58 3.65-4.99 7.33-12.53 18.41-22.55 19.08-10.38.69-26.06 2.76-42.37 12.68-16.44 10-21.68 13.72-21.73 13.76-.56.42-1.23.62-1.89.62z"/>
    </g>
    <path d="M2283.44 1263.32h-40.29c-7.24 0-13.16-5.92-13.16-13.16v-10.96c0-7.24 5.92-13.16 13.16-13.16h40.29c7.24 0 13.16 5.92 13.16 13.16v10.96c0 7.24-5.92 13.16-13.16 13.16z" fill="#6390e0"/>
  </g>
  <g>
    <path class="st7" d="M257.48 1488.83h841.9l284.33-25.61s-50.88-126.77-64.75-128.67c-13.87-1.91-1034.81 0-1034.81 0l-26.67 154.28z"/>
    <path class="st6" d="M1516.32 1362.51c-2.97 10.31-8.53 12.54-8.52 34.76.01 8.73 1.95 19.74-2.43 29.42-1.91 4.2-13.71 11.19-10.42 25.22 0 0-19.46 15.08-20.28 16.99-.82 1.92-2.19 12.61-2.19 12.61-20.95 8.57-114.89 5.32-114.89 5.32s2.85-155.21-127.6-137.12-107.66 146.92-107.66 146.92l-627.19 11.18s10.19-163.62-128.28-146.42c-115.05 14.3-85.5 145.8-85.5 145.8-114.7 5.93-126.55-33.01-126.55-33.01v-16.07H162v-42.33h-7.19v-31.52l24.13-55.24c10.16-17.46 37.7-31.74 73.3-43.34 106.77-34.82 286.02-45.53 286.02-45.53 48.41-27.83 88.54-48.51 119.93-63.53 50.07-23.96 107.15-47.32 162.4-52.78 149.58-14.78 272.59 1.97 302.74 6.86 35.23 5.71 212.34 82.83 225.68 89.5s122.06 15.71 136.03 17.4 13.54 15.66 13.54 15.66l1.92 12.4-2.26 7.26-10.43-3.63 4.4 15.69-1.37 6.58 14.01 2.23 2.95 19.07 1.79 11.51c10.15 5.07 8.27 32.82 6.73 38.14z"/>
    <circle transform="rotate(-79.444 385.431 1463.206)" class="st9" cx="385.4" cy="1463.22" r="96.58"/>
    <path class="st10" d="M385.4 1538.75c-41.65 0-75.53-33.88-75.53-75.53s33.88-75.53 75.53-75.53 75.53 33.88 75.53 75.53c0 41.64-33.89 75.53-75.53 75.53zm0-144.08c-37.8 0-68.55 30.75-68.55 68.55s30.75 68.55 68.55 68.55 68.55-30.75 68.55-68.55c-.01-37.8-30.76-68.55-68.55-68.55z"/>
    <path class="st10" d="M398.29 1535.33h-27.06l8.69-74.17-9.93-70.44 30.93 1.91-10.31 68.53z"/>
    <path class="st10" d="M329.25 1510.29l-13.53-23.44 68.58-29.55 56.05-43.81 13.8 27.74-64.51 25.33z"/>
    <path class="st10" d="M318.4 1435.27l14.87-22.61 57.2 48 64.31 30.41-18.59 24.79-51.6-46.26z"/>
    <path class="st10" d="M360.05 1463.08c0-13.92 11.28-25.2 25.2-25.2s25.2 11.28 25.2 25.2-11.28 25.2-25.2 25.2-25.2-11.28-25.2-25.2z"/>
    <circle transform="rotate(-73.154 1241.792 1463.203)" class="st9" cx="1241.77" cy="1463.22" r="96.58"/>
    <path class="st10" d="M1241.77 1538.75c-41.65 0-75.53-33.88-75.53-75.53s33.88-75.53 75.53-75.53 75.53 33.88 75.53 75.53c0 41.64-33.89 75.53-75.53 75.53zm0-144.08c-37.8 0-68.55 30.75-68.55 68.55s30.75 68.55 68.55 68.55 68.55-30.75 68.55-68.55c-.01-37.8-30.76-68.55-68.55-68.55z"/>
    <path class="st10" d="M1254.66 1535.33h-27.06l8.69-74.17-9.93-70.44 30.93 1.91-10.31 68.53z"/>
    <path class="st10" d="M1185.62 1510.29l-13.53-23.44 68.58-29.55 56.04-43.81 13.81 27.74-64.51 25.33z"/>
    <path class="st10" d="M1174.77 1435.27l14.87-22.61 57.19 48 64.32 30.41-18.59 24.79-51.6-46.26z"/>
    <path class="st10" d="M1216.42 1463.08c0-13.92 11.28-25.2 25.2-25.2s25.2 11.28 25.2 25.2-11.28 25.2-25.2 25.2-25.2-11.28-25.2-25.2z"/>
    <path d="M288.06 1328.7h-63.18a57.715 57.715 0 00-50.38 29.56l-2.17 3.88c-2.19 3.92.64 8.74 5.13 8.74h76.04c5.25 0 10.26-2.19 13.82-6.05l24.8-26.88c3.25-3.53.74-9.25-4.06-9.25z" fill="#f9ddbf"/>
    <path class="st7" d="M211.33 1463.22h-21.56c-7.14 0-13.71 3.86-17.19 10.09l-.74 1.32c-.75 1.34.22 2.98 1.75 2.98h25.95c1.79 0 3.5-.75 4.72-2.06l8.46-9.17c1.11-1.21.25-3.16-1.39-3.16z"/>
    <path class="st10" d="M1255.63 1230.99l-322.39 7.66c-6.32.15-11.52-4.93-11.52-11.25v-74.28c0-5.85 4.78-10.56 10.63-10.48 137.48 1.91 184.59 5.74 212.85 15.49 24.92 8.6 83.2 43.95 113.32 61.89 5.07 3.04 3.02 10.83-2.89 10.97zM893.66 1142.16c5.23.06 10.35.12 15.36.18v96.88L598 1246.61c-4.05.1-5.73-5.16-2.37-7.42 36.34-24.49 158.06-98.61 298.03-97.03z"/>
    <path class="st10" d="M1254.53 1231.02l-.17.01v-13.46c1.1.66 2.17 1.29 3.21 1.91 5.35 3.18 3.19 11.39-3.04 11.54z"/>
    <path class="st6" d="M921.71 1243.13l-38.09-3.01 2.54-103.61h35.55zM1162.96 1243.13h-17.77v-93.04l17.77 10.67z"/>
    <path class="st9" d="M636.81 1214.05l9.48 31.41-51.88 1.23c-3.03.07-4.33-3.81-1.88-5.57 11.72-8.43 33.42-23.44 44.28-27.07z"/>
    <path class="st7" d="M592.16 1249.28c-2.12 0-3.97-1.34-4.64-3.36-.68-2.06.07-4.28 1.85-5.52l1.08-.75c1.12-.78 2.38-1.64 3.76-2.57 1.14-.77 2.36-1.58 3.66-2.44l1.96-1.29c1.49-.98 3.07-1.99 4.74-3.06 1.19-.76 2.43-1.54 3.7-2.35l.21-.13c.18-.11.37-.23.55-.34 1.08-.67 2.21-1.38 3.38-2.1l.26-.16 1.17-.72c.58-.36 1.19-.73 1.8-1.1.85-.52 1.72-1.04 2.61-1.57 2.49-1.5 5.17-3.08 7.96-4.69.86-.5 1.74-1.01 2.63-1.52 1.76-1.01 3.57-2.04 5.43-3.07l1.31-.73c3.75-2.08 7.54-4.15 11.29-6.14l1.23-.65c.57-.3 1.14-.6 1.71-.91 7.13-3.74 14.46-7.4 21.79-10.9l2.28-1.08c2.29-1.08 4.61-2.16 6.97-3.24.78-.36 1.58-.72 2.38-1.08 1.57-.71 3.17-1.43 4.79-2.15l2.43-1.07c2.42-1.07 5-2.18 7.89-3.39 1.49-.63 3-1.25 4.5-1.87 10.17-4.19 20.53-8.13 30.8-11.71l2.25-.78 2.55-.87 3.2-1.07c.87-.29 1.73-.57 2.6-.85l.1-.03c.9-.3 1.81-.59 2.73-.88 1.65-.53 3.31-1.06 4.98-1.57 1.13-.35 2.28-.71 3.44-1.06 1.76-.53 3.53-1.06 5.3-1.58l2.95-.85c1.86-.53 3.72-1.05 5.6-1.56 3.71-1.02 7.5-2.01 11.24-2.95l.23-.06c.33-.08.66-.17 1-.25 1.59-.4 3.22-.79 4.86-1.18.96-.23 1.95-.46 2.94-.69l.74-.17c.73-.17 1.47-.34 2.2-.5.98-.22 1.96-.44 2.95-.65.99-.22 1.98-.43 2.97-.64 1-.21 1.99-.42 2.99-.62.99-.21 1.99-.41 3-.61l.16-.03c.95-.19 1.9-.37 2.84-.56.94-.18 1.89-.36 2.84-.54 1.07-.2 2.14-.39 3.21-.58.68-.13 1.37-.25 2.06-.37l.97-.17c2.03-.35 4.05-.68 6.08-1 1.01-.16 2.04-.32 3.06-.48l.16-.02c1.8-.27 3.6-.53 5.4-.78 3.36-.46 6.73-.89 10.04-1.28l.22-.03c.93-.11 1.85-.21 2.78-.31.64-.08 1.33-.15 2-.21.66-.08 1.38-.15 2.1-.22.76-.08 1.55-.16 2.35-.23 1.04-.1 2.1-.2 3.16-.29 1-.09 2.02-.17 3.04-.25.81-.07 1.58-.13 2.36-.18l4.51-.31c.89-.06 1.78-.11 2.67-.16l.39-.02c.97-.06 1.98-.11 2.97-.15.79-.04 1.59-.08 2.39-.11h.08l2.14-.09 1.77-.06 2.11-.06c2.78-.09 5.36.94 7.34 2.87a10.04 10.04 0 013.06 7.25v80.29c0 6.67-5.43 12.23-12.1 12.39l-284.32 6.75c-.06.02-.1.02-.14.02zm46.95-33.61l-1.76.98c-2.05 1.14-4.05 2.27-5.98 3.38-.89.51-1.76 1.01-2.61 1.51a640.725 640.725 0 00-10.49 6.21c-.6.36-1.2.73-1.79 1.09-.4.24-.77.47-1.14.7l-.27.17c-1.16.71-2.29 1.41-3.38 2.09l-.72.45c-1.26.79-2.49 1.57-3.67 2.33-1.65 1.05-3.21 2.06-4.68 3.02l-1.95 1.28c-1.29.85-2.49 1.65-3.62 2.41-1.36.92-2.6 1.76-3.71 2.54l-.52.36 53.41-1.27 230.25-5.47c3.94-.09 7.14-3.37 7.14-7.31v-80.29c0-1.37-.54-2.65-1.52-3.61a5.02 5.02 0 00-3.66-1.43l-2.08.06-1.77.06c-.7.02-1.39.05-2.09.08h-.08c-.79.03-1.58.07-2.36.11-.98.04-1.96.09-2.93.15l-.39.02c-.87.05-1.74.1-2.62.16l-4.48.3c-.76.05-1.52.12-2.29.18-1.05.08-2.05.16-3.04.25-1.05.09-2.09.18-3.13.28-.79.07-1.55.15-2.32.23-.71.07-1.39.13-2.05.21-.7.07-1.35.14-2 .21-.94.1-1.84.2-2.75.3l-.21.03c-3.26.38-6.6.8-9.92 1.26-1.78.25-3.56.5-5.33.77l-.15.02c-1.01.16-2.03.31-3.04.47-2.02.32-4.02.65-6.01.99l-.97.17c-.68.12-1.36.24-2.03.36-1.07.19-2.13.38-3.18.58-.94.17-1.87.35-2.81.54-.95.18-1.88.37-2.82.55l-.16.03c-.99.19-1.96.39-2.94.6-1 .21-1.99.41-2.97.62-.97.21-1.95.42-2.93.63-.98.21-1.95.43-2.93.65-.73.16-1.45.33-2.17.49l-.75.17c-.97.22-1.93.45-2.89.68a285.308 285.308 0 00-5.77 1.41l-.24.06c-3.71.93-7.46 1.91-11.14 2.92-1.86.51-3.71 1.02-5.54 1.55l-2.93.84c-1.75.51-3.5 1.04-5.25 1.56-1.14.34-2.27.69-3.4 1.04-1.66.51-3.31 1.04-4.95 1.56-.9.28-1.79.57-2.68.87l-.11.04c-.86.28-1.71.56-2.57.84l-3.19 1.07c-.84.28-1.68.56-2.51.85l-2.24.78a580.421 580.421 0 00-30.53 11.61c-1.5.62-2.99 1.24-4.48 1.86-2.85 1.2-5.41 2.3-7.81 3.36l-2.43 1.07c-1.6.71-3.19 1.41-4.75 2.13-.8.36-1.58.71-2.35 1.07-2.35 1.07-4.65 2.14-6.92 3.22l-2.27 1.08c-7.26 3.47-14.53 7.1-21.6 10.8-.57.3-1.14.61-1.72.91l-1.22.64c-3.37 1.8-6.77 3.65-10.14 5.51zM1168.28 1235.71c-1.9 0-3.7-.75-5.1-2.11-1.56-1.52-2.46-3.69-2.46-5.95v-54.21c0-3.08.46-7.02 2.95-8.58 2.26-1.41 6.06-.38 8.45.79 2.65 1.3 4.5 2.24 5.5 2.78.11.05.25.13.4.21l1.08.59c13.51 7.38 32.74 19 57.17 34.52 1.04.66 2.08 1.32 3.1 1.97 2.46 1.57 4.86 3.11 7.16 4.59l8.57 5.53c1.49.96 2.92 1.89 4.28 2.78.19.12.4.25.61.39l.19.12c2.85 1.86 4.12 5.4 3.15 8.82-.92 3.24-3.57 5.39-6.76 5.47l-.93.02-87.17 2.26c-.07.01-.13.01-.19.01zm.47-66.36c-.73 0-1.32.28-1.67.5-1.17.73-1.87 2.07-1.87 3.59v54.21c0 1.05.4 2.05 1.1 2.73.57.56 1.29.84 2.04.83l88.1-2.29c1.8-.05 2.4-1.69 2.54-2.2.33-1.16.19-2.86-1.27-3.82l-.19-.12c-.19-.13-.39-.25-.59-.38-1.38-.9-2.81-1.83-4.29-2.79l-8.55-5.52c-2.3-1.48-4.7-3.02-7.15-4.58-1.02-.65-2.05-1.31-3.09-1.96-24.35-15.48-43.5-27.04-56.92-34.38l-1.09-.6-.33-.18c-.97-.53-2.82-1.46-5.39-2.72-.49-.23-.96-.32-1.38-.32z"/>
    <path class="st9" d="M636.81 1214.05l9.48 31.41-51.88 1.23c-3.03.07-4.33-3.81-1.88-5.57 11.72-8.43 33.42-23.44 44.28-27.07z"/>
    <path class="st7" d="M932.95 1241.19c-3.61 0-7.02-1.38-9.62-3.92a13.693 13.693 0 01-4.16-9.87v-74.28c0-3.51 1.38-6.8 3.88-9.26 2.5-2.47 5.82-3.78 9.33-3.75 141.9 1.97 185.84 5.19 213.71 15.65l1.65.62v79.72l-214.43 5.09h-.36zm-.76-96c-2.1 0-4.08.81-5.58 2.29a7.887 7.887 0 00-2.36 5.65v74.28c0 2.37.93 4.58 2.63 6.23a8.624 8.624 0 006.29 2.47l209.48-4.97v-71.22c-27.12-9.62-73.62-12.83-210.35-14.73h-.11z"/>
    <path class="st11" d="M1507.8 1312.84h-60.7a29.46 29.46 0 01-23.15-11.24l-22.96-29.18c-2.16-2.75-.21-6.78 3.3-6.78h96.2l-2.26 7.26-10.43-3.63 4.4 15.69-1.37 6.58 14.01 2.23 2.96 19.07z"/>
    <path transform="rotate(-89.318 905.834 1304.056)" class="st7" d="M743.2 1302.76h325.29v2.54H743.2z"/>
    <path transform="rotate(-1.146 807.65 1470.087)" class="st7" d="M493.85 1468.14h627.62v2.54H493.85z"/>
    <path class="st14" d="M869.08 1306.61c0 3.44-15.35 6.23-34.28 6.23s-34.28-2.79-34.28-6.23 15.35-6.23 34.28-6.23c18.93.01 34.28 2.79 34.28 6.23zM1188.36 1306.61c0 3.44-15.35 6.23-34.28 6.23s-34.28-2.79-34.28-6.23 15.35-6.23 34.28-6.23 34.28 2.79 34.28 6.23z"/>
    <path class="st7" d="M1096.93 1463.29l-2.54-.14c1.75-32.34 11.34-59.59 28.49-81 13.72-17.13 32.27-30.56 55.14-39.92 34.79-14.24 69.24-14.61 76.34-14.5v-96.72h2.54v99.34l-1.32-.05c-.38-.02-38.33-1.39-76.67 14.32-22.45 9.2-40.64 22.38-54.08 39.17-16.79 20.96-26.18 47.72-27.9 79.5z"/>
    <g>
      <path class="st7" d="M570.39 1474.08c-.98-83.9 3.69-141.95 7.78-175.87 4.44-36.81 9.19-54.01 9.24-54.18l2.45.68c-.19.67-18.8 69.17-16.92 229.33l-2.55.04z"/>
    </g>
    <g>
      <path class="st7" d="M882.67 1141.38h49.67v2.54h-49.67z"/>
    </g>
    <path class="st15" d="M1494.95 1451.9s-9.68-4.2-15.54-5.3c-5.84-1.1-39.83 3.29-39.83 3.29s14.62-9.87 22.29-13.16c7.67-3.29 43.49-10.05 43.49-10.05-1.9 4.2-13.7 11.2-10.41 25.22zM1507.8 1383.92l-30.39-12.6-18.09-24.18 40.57 14.86 16.43.51zM1479.05 1402.56s-29.06-3.29-35.63 0-23.02 20.28-20.83 24.12c2.19 3.84 31.25-12.97 42.21-12.79s43.41-5.3 43.41-5.3l-29.16-6.03z"/>
    <path class="st6" d="M1403.4 1559.71s31.25-10.77 38.92-12.96c7.67-2.19 25.03-2.67 25.03-2.67s-3.75 9.61-2.06 10.34c1.69.73 9.37 5.38 9.37 5.38l-71.26-.09zM1520.72 1559.71s20.47-9.67 25.58-9.67 25.95 4.84 25.95 4.84l-2.19 4.93-49.34-.1z"/>
    <path fill="#7a231f" d="M1507.8 1312.84h-33.13l-1.37-4.84 12.33-7.68-19.73-5.48-4.94-9.05 17.27-8.49-6.3-11.65h28.57l-2.26 7.26-10.43-3.63 4.4 15.69-1.37 6.58 14.01 2.23z"/>
    <path class="st11" d="M1488.65 1559.71l1.09-4.8 10.97-1.31 3.29 6.2z"/>
    <path class="st14" d="M696.8 1265.32h-54.27c-7.24 0-13.16-5.92-13.16-13.16v-15.95c0-7.24 5.92-13.16 13.16-13.16h54.27c7.24 0 13.16 5.92 13.16 13.16v15.95c0 7.24-5.92 13.16-13.16 13.16z"/>
  </g>
  <g>
    <path d="M1563.77 1027.48s-.83-13.48-.73-19.31c.1-5.83 14.51-22.58 19.41-22.58s3.26 15.43 2.45 20.22c-.82 4.8 1.63 9.15-1.09 12.96-2.72 3.81-8.07 11.88-8.07 11.88l-11.97-3.17z" fill="#d9935c"/>
    <path class="st18" d="M1649.77 1049.69l-23.14 22.18c-5.45-4.55-9.77-9.76-13.21-14.86-.54-.79-1.05-1.59-1.55-2.37-3.09-4.94-5.36-9.6-6.99-13.19-.27-.58-.52-1.13-.75-1.65-1.28-2.79 12.84-11.73 20.82-17.39 2.48-1.83 4.39-3.27 5.03-4.15 0 0-.55 3.74-.03 6.29 1.23 5.98 3.86 9.64 6.97 13.06 8.1 8.87 12.85 12.08 12.85 12.08z"/>
    <path class="st19" d="M1632.27 1025.09s-4.59 24.38-18.84 31.93c-.54-.79-1.05-1.59-1.55-2.37-3.09-4.94-5.36-9.6-6.99-13.19 1.74-3.61 13.62-11.2 20.69-16.21 3.98-.08 6.69-.16 6.69-.16z"/>
    <path class="st18" d="M1603.92 1052.15s34.63-11.56 27.1-33.01c-7.53-21.45-8.13-37.39-30.56-30.92-22.43 6.47-23.83 16.16-23.05 23.93.76 7.78 17.31 42.46 26.51 40z"/>
    <path class="st20" d="M1633.68 1025.62s-3.52-2.34 4.23-14.58c4-6.31 7.56-12.25 1.9-22.51-5.66-10.27-5.3-18.54-20.9-18.54-15.6 0-17.17-7.22-25.12-4.7-7.95 2.52-15.01 14.2-21.81 16.39-6.8 2.19-11.96 37.84 3.6 36.85 0 0 5.85-2.91 8.47-7.62 2.62-4.71 15.89-15.44 20.11-11.94 4.22 3.49 21.14 26.81 29.52 26.65z"/>
    <path class="st14" d="M1655.46 1105.31s-68.3 30.56-109.8 37.58c0 0-13-.88-13.44-16.88-.28-10.15 68.15-59.97 93.16-58.49s38.72 27.07 30.08 37.79z"/>
    <path class="st14" d="M1577.25 1029.43l-5.66 77.14-39.38 19.43s.61-28.81 11.78-60.69c12.09-34.51 18.51-40.15 18.51-40.15s10.87-2.45 14.75 4.27z"/>
    <path class="st20" d="M1639.68 1552.91c-.31 3.42-1.05 6.3-2.59 7.03-.27.13-.71.24-1.31.34h-51.99c-1.39-.04-2.18-.07-2.18-.07s.13-6.42 8.97-7.67c7.14-1 18.69-4.41 24.37-11.81 1.34-1.75 2.36-3.73 2.91-5.96 2.86-11.61 21.58 4.03 21.58 4.03s.21 2.02.34 4.83c.13 2.73.19 6.22-.1 9.28z"/>
    <path class="st20" d="M1688.43 1560.28h-57.78c.64-1.48 3-5.83 9.03-7.37.58-.16 1.2-.28 1.85-.37 6.23-.88 15.81-3.57 21.92-9.16 2.56-2.33 4.52-5.18 5.36-8.61 2.86-11.61 21.58 4.03 21.58 4.03s.2 1.86.34 4.49c.31 5.7.38 15.04-2.3 16.99z"/>
    <path class="st21" d="M1663.9 1245.72s-.04 2.1-.13 5.87c-.52 24.32-2.6 118.33-4.57 170.74-.08 1.91-.15 3.75-.22 5.55-.04.95-.08 1.9-.11 2.84-1.18 25.34-4.62 50.15-8.09 70-4.43 25.31-8.93 42.54-8.93 42.54-16.88 3.42-27.82-3-27.82-3s-4.55-39.28-6.28-63.05c-.57-7.71-3.35-34.03-6.83-66.05-2.7-24.76-5.83-52.93-8.7-78.54-.15-1.36-.3-2.73-.45-4.07-4.63-41.42-8.47-75.15-8.47-75.15l29.85-2.84 50.75-4.84z"/>
    <path class="st20" d="M1650.77 1500.72l-49.87-89.55c-2.7-24.76-5.83-52.93-8.7-78.54-.15-1.36-.3-2.73-.45-4.07-4.63-41.42-8.47-75.15-8.47-75.15l29.85-2.84 50.64 1.04-13 249.11z"/>
    <path class="st21" d="M1588.8 1253.62s27.9 137.93 50.64 204.49c22.74 66.57 23.02 85.06 23.02 85.06s20.86 4.52 30.05-.73c0 0 5.25-126.19-8.5-159.71-9.1-22.17-16.06-69.35-13.69-86.34 2.37-16.99 4.57-51.07 4.57-51.07l-86.09 8.3z"/>
    <path class="st6" d="M1678.55 1241.74c-1.57 8.44-5.31 15.16-11.09 19.26-6.59 4.67-16.99 6.35-28.43 6.18-13.37-.22-28.16-2.98-39.99-6.52-6.36-1.9-11.86-4.02-15.82-6.09-17.67-9.21-15.17-21.48-14.74-67.39.43-46.85 29.27-107.42 34.46-117.56 9.24-18.05 48.46-12.11 48.46-12.11 8.6 7.89 16.13 19.34 21.26 37.64 2.08 7.41 3.29 17.77 3.99 29.41 2.12 35.56-.62 82.99 1.45 94.07 1.58 8.5 1.71 16.35.45 23.11z"/>
    <path class="st14" d="M1646.28 1039.62s6.42 15.19 5.12 17.89c0 0-35.24 3.33-49.58 13.54 0 0 4.72-14.75 10.45-18.42 5.74-3.65 34.01-13.01 34.01-13.01zM1678.55 1241.74c-72.98-27.77-31.31-130.48-31.31-130.48 10.21.72 20.21 5.68 29.4 13.31 2.12 35.56-.62 82.99 1.45 94.07 1.59 8.49 1.72 16.34.46 23.1z"/>
    <path class="st6" d="M1645.19 1064.35s62.56 41.91 89.71 74.08c0 0-1.65 12.83-10.42 17.93s-85.08-24.6-96.52-46.88c-11.44-22.28 3.6-47.12 17.23-45.13z"/>
    <path class="st18" d="M1653.89 1199.77s-4 6.93-7.85 5.29c-3.85-1.63-11.61-3.35-17.39.36-5.77 3.72-14.48 13.75-9.04 16.2 5.44 2.45 15.78-4.05 18.22-5.14 2.45-1.09 6.71 1.09 11.42-1.27 4.71-2.36 9.61-7.07 9.61-7.07l-4.97-8.37z"/>
    <path class="st6" d="M1647.61 1201.64l51.32-70.18 35.97 6.97s-4.8 23.7-30.88 45.17c-26.88 22.12-41.71 26.51-41.71 26.51s-17.82 3.06-14.7-8.47z"/>
  </g>
  <g>
    <g id="man_63_">
      <path class="st18" d="M2012.62 1109.55c2.45 6.59 6.69 14.23 11.15 16.13 5.05 2.16 7.16 5.2 7.16 5.2l4.08-2.37 4.87-2.83s-.12-.54-.35-1.42c-.23-.88-.6-2.1-1.09-3.45 0 0-1.49-1.92-.58-4.33.92-2.41.73-6.14-.83-8.41-1.56-2.27-3.07-7.86-4.01-7.7-2.28.39 1.12 8.08.15 9.51-.88 1.29-1.98.85-2.19.75-.01-.01-.03-.01-.04-.02-6.39-2.81-14.14-17.96-17.57-15.92-1.3.76-1.8 12.05-.75 14.86z"/>
      <path class="st21" d="M2034.72 1118.72l-8.01 5.63c-.57.4-1.35.26-1.75-.31l-20.51-29.18c-.4-.57-.26-1.35.31-1.75l8.01-5.63c.57-.4 1.35-.26 1.75.31l20.51 29.18c.4.56.26 1.35-.31 1.75z"/>
      <path class="st20" d="M2027.39 1123.87l-4.69 3.3c-.43.3-1.03.2-1.33-.23l-20.85-29.67c-.3-.43-.2-1.03.23-1.33l4.69-3.3c.43-.3 1.03-.2 1.33.23l20.85 29.67a.94.94 0 01-.23 1.33zM2149.58 1076.84s-40.74 71.05-55.52 84.13l-54.19-40.4s-7.86 2.41-11.31 10.31c0 0 32.91 67.05 65.31 69.89 32.4 2.84 77.88-80.36 77.88-80.36l-22.17-43.57zM2241.77 1560.12h23.54c2.96-1.61 5.6-5.29 6.44-10.79 1.15-7.58 9.65-11.72 11.49-17.92 1.84-6.2-7.58-14.93-7.58-14.93l-1.58-2.03-1.64-2.11-15.62 3.68s-.39 3.72-.62 8.46c-.17 3.42-.26 7.37-.07 10.84.46 8.27-2.31 17.18-9.66 18.79-5.44 1.19-5.2 4.41-4.7 6.01zM2105.17 1560.12H2159c2.59-3.16 1.64-14.82 1.24-18.63-.08-.77-.14-1.21-.14-1.21s-18.38-14.7-20.91-3.44c-.08.35-.17.7-.27 1.04-3.18 10.53-17.45 15.32-25.69 16.65-5.35.87-7.33 3.65-8.06 5.59z"/>
      <path class="st22" d="M2115.42 1259.65s2.79 34.82 6.07 76.68c4.46 56.86 9.82 126.71 10.35 139.94.92 22.98 4.6 59.73 4.6 59.73s8.72 8.73 26.19 5.05c0 0 15.56-52.47 20.01-107.98l.21-2.74c4.13-56.51 10.56-175.51 10.56-175.51l-77.99 4.83z"/>
      <path d="M2115.42 1259.65s2.79 34.82 6.07 76.68l61.14 96.75.21-2.74c4.13-56.51 10.56-175.51 10.56-175.51l-77.98 4.82z" fill="#ef8c48"/>
      <path class="st22" d="M2128.17 1263.79s50.31 126.12 83.39 185.39c33.08 59.27 43.42 75.81 43.42 75.81s18.95-7.58 20.68-12.75c0 0-12.65-114.42-34.8-142.32-12.52-15.76-27.22-63.06-27.91-79.6-.69-16.54-4.48-49.28-4.48-49.28l-80.3 22.75z"/>
      <path class="st18" d="M2140.69 1079.93c19.66 6.2 53.68-10.54 53.68-10.54s-18.13-13.6-17.18-41.89l-15.2 12.25-10.33 8.32s.04 4.91 1.17 13.5c.3 2.26.67 4.78 1.14 7.54-8.44 4.63-13.28 10.82-13.28 10.82z"/>
      <path class="st19" d="M2151.67 1048.07s.04 4.91 1.17 13.5c11.44-1.96 24.42-20.46 24.42-20.46-5.83-1.68-10.93-1.98-15.27-1.37l-10.32 8.33z"/>
      <path class="st18" d="M2145.65 1047.61s32.47 5.39 35.52-14.88c3.05-20.27 9.29-33.23-11.31-37.53-20.6-4.3-25.81 2.83-28.47 9.35-2.66 6.51-4.11 41.13 4.26 43.06z"/>
      <path class="st21" d="M2113.25 1262.55c.59.49 1.28.79 2.07.79 7.38-.1 28.91 4 47.13 2.13 15.36-1.47 28.95-6.02 43.55-12.57 1.94-.87 6.4-3.25 6.3-5.42-.07-2.37-.3-5.81-.6-10.15-1.03-15.07-2.83-40.98-1.08-70.88.32-5.57.48-11.09.5-16.53.15-40.52-7.88-76.16-24.03-88.22-1.38-.99-9.85 3.15-17.62 6.99-7.19 3.55-14.38 3.94-21.17 2.56l-6.79 6c-8.27 7.68-17.33 18.12-21.27 33.96-3.35 13.49-5.32 37.81-6.4 63.01-.49 11.42-.89 22.94-.99 33.87v.39c-.09 1.08-.09 2.27-.09 3.35-.4 28.08 0 50.33.49 50.72z"/>
      <path class="st20" d="M2211.69 1237.34c-1.03-15.07-2.83-40.98-1.08-70.88.32-5.57.48-11.09.5-16.53-6.73-16.32-12.22-28.15-12.22-28.15h-16.95c0 .01-12.43 84.9 29.75 115.56z"/>
      <path class="st18" d="M2243.55 1240.26s3.8 5.06 3.95 7.08c1.02 13.7-5.24 15.59 10.97 23.2 0 0 6.92 2.64 7.04-2.73.12-5.37-4.8-5.46-3.9-12.98 1.04-8.67.93-8.75-4.76-13.28l-3.77-6.23-9.53 4.94z"/>
      <path class="st21" d="M2253.21 1244.13c-6.1 1.19-12.72.71-12.72.71s-18.12-55.98-20.46-61.1c-2.33-5.11-53.83-65.64-53.83-65.64l21.45-53.69s55.7 93.04 61.36 106.11c9.35 21.6 12.59 70.04 12.59 70.04s-3.6 2.64-8.39 3.57zM2181.2 1030.78s-3.33-.56-2.79-5.15.53-10.59-3.2-9.47c-3.73 1.12-3.92 4.11-5.45 2.36-1.53-1.75-1.56-9.1-12.67-9.61-11.1-.51-15.62 3.35-20.78 1.08-5.16-2.27-5.44-10.09-5.44-10.09s1.47 2.79 3.69 3.68c0 0-8.61-11.78 1.36-19.86 9.97-8.08 20.14-2.79 25.92-2.44 12.72.77 20.93 1.53 25.09 9.89 4.15 8.36 2.43 31.56-5.73 39.61z"/>
      <path class="st18" d="M2249.54 1246.28s-3.66 3.81-3.89 5.4c-.74 5.09-2.44 7.29-1.59 7.84 1.77 1.15 4.12-2.62 5.23-6 1.13-3.38.25-7.24.25-7.24z"/>
    </g>
  </g>
  <path d="M3079.95 1566.5l-.01 1.48c0 1.97-1.55 3.58-3.45 3.57l-2217.52-7.41-680.15-2.28-38.1-.13c-1.89 0-3.42-1.63-3.42-3.59l.01-1.48c0-1.98 1.56-3.58 3.43-3.58l38.07.12 2741.53 9.18 156.17.52c1.91.01 3.44 1.63 3.44 3.6z" fill="#2e3552"/>
</svg>
