<?xml version="1.0" encoding="utf-8"?>
<!-- Generator: Adobe Illustrator 24.1.2, SVG Export Plug-In . SVG Version: 6.00 Build 0)  -->
<svg version="1.1" id="Layer_1" xmlns="http://www.w3.org/2000/svg" xmlns:xlink="http://www.w3.org/1999/xlink" x="0px" y="0px"
	 viewBox="0 0 627.18 725" style="enable-background:new 0 0 627.18 725;" xml:space="preserve">
<style type="text/css">
	.st0{fill:none;stroke:#000000;stroke-width:1.0535;stroke-miterlimit:10;}
	.st1{fill:none;stroke:#000000;stroke-width:1.2344;stroke-miterlimit:10;}
	.st2{fill:none;stroke:#000000;stroke-width:1.2705;stroke-miterlimit:10;}
	.st3{fill-rule:evenodd;clip-rule:evenodd;fill:#19262E;}
	.st4{fill-rule:evenodd;clip-rule:evenodd;fill:#2F4451;}
	.st5{fill-rule:evenodd;clip-rule:evenodd;fill:#0C2635;}
	.st6{fill:none;}
</style>
<g>
	<polyline class="st0" points="228.11,64.36 228.11,64.44 228.11,321.93 	"/>
</g>
<line class="st1" x1="348.61" y1="725.93" x2="348.11" y2="725.93"/>
<line class="st1" x1="348.11" y1="464.88" x2="348.11" y2="405.75"/>
<line class="st2" x1="348.61" y1="602.93" x2="348.11" y2="602.93"/>
<path class="st3" d="M347.61,639.22v1.21h-231v-67h0.5v-251.5h99v146.91l0.01,11.08c0.09,0,0.17,0.01,0.26,0.01L347.61,639.22z"/>
<path class="st4" d="M347.61,464.88v174.34L216.38,479.93c-0.09,0-0.17-0.01-0.26-0.01l-0.01-12.49v-145.5h11.76v157.99
	c5.49,0.3,11,0.47,16.57,0.5c0.7,0.01,1.41,0.01,2.11,0.01c7.54,0,15-0.24,22.38-0.73c24.8-1.61,48.63-5.89,71.03-12.46
	C342.53,466.49,345.08,465.7,347.61,464.88z"/>
<path class="st5" d="M582.61,272.18c0,87.03-87.79,161.59-212.45,192.7c-3.27,0.82-6.54,1.61-9.85,2.36
	c-4.19,0.96-8.43,1.87-12.7,2.72c-25.07,5.04-51.42,8.36-78.68,9.74c-8.08,0.41-16.25,0.65-24.49,0.72c-1.43,0-2.86,0.01-4.3,0.01
	c-7.98,0-15.9-0.17-23.76-0.5c-0.09,0-0.18-0.01-0.27-0.01V64.44c7.95-0.34,15.96-0.51,24.03-0.51
	C429.28,63.93,582.61,157.16,582.61,272.18z"/>
<line class="st6" x1="348.61" y1="640.43" x2="347.61" y2="639.22"/>
<line class="st6" x1="216.38" y1="479.93" x2="216.11" y2="479.6"/>
<polyline class="st6" points="236.61,469.43 227.87,469.18 216.11,468.84 "/>
<line class="st6" x1="216.61" y1="468.43" x2="216.61" y2="479.43"/>
<line class="st6" x1="213.72" y1="482.32" x2="213.61" y2="482.43"/>
<line class="st6" x1="202.65" y1="467.43" x2="202.61" y2="467.43"/>
</svg>
